<svg width="1114" height="449" viewBox="0 0 1114 449" fill="none" xmlns="http://www.w3.org/2000/svg">
<path d="M214.941 112.591C272.219 110.259 322.174 152.779 328.993 209.59C330.262 220.178 331.512 231.447 321.801 238.369C310.131 246.681 293.246 239.078 292.089 224.843C291.427 216.68 291.52 210.766 289.178 202.669C272.769 145.848 198.047 131.547 161.768 178.461C125.965 224.768 156.899 291.953 214.885 295.656C221.005 296.048 224.718 295.274 230.119 299.117C245.129 309.798 237.74 332.924 219.456 333.521C184.744 334.65 149.091 314.883 129.295 287.055C78.3237 215.43 127.672 116.136 214.96 112.582L214.941 112.591Z" fill="#009340"/>
<path d="M316.857 288.734L378.052 201.344C391.578 186.54 414.368 202.865 404.695 220.458L327.976 330.293C322.277 337.709 312.174 338.53 305.075 332.485L240.194 267.605C226.948 251.271 247.564 231.205 263.693 244.563L308.162 289.033C310.952 291.206 314.245 291.132 316.857 288.725V288.734Z" fill="#009340"/>
<path d="M670.222 126.6C678.216 126.6 685.363 127.932 691.661 130.597C697.96 133.261 703.168 137.097 707.286 142.104L692.024 155.912C689.117 152.763 685.969 150.421 682.577 148.887C679.266 147.272 675.551 146.464 671.433 146.464C667.799 146.464 664.489 147.03 661.501 148.16C658.513 149.291 655.97 150.946 653.87 153.126C651.771 155.225 650.115 157.769 648.903 160.757C647.773 163.664 647.208 166.975 647.208 170.689C647.208 174.243 647.773 177.513 648.903 180.501C650.115 183.489 651.771 186.073 653.87 188.253C655.97 190.352 658.473 192.008 661.38 193.219C664.368 194.349 667.638 194.915 671.19 194.915C674.743 194.915 678.216 194.349 681.607 193.219C682.453 192.917 683.301 192.564 684.151 192.162V168.873H705.349V203.999L704.431 204.641C699.799 207.801 694.492 210.253 688.512 211.994C682.132 213.851 675.874 214.779 669.737 214.779C663.035 214.779 656.817 213.73 651.084 211.631C645.351 209.451 640.385 206.382 636.186 202.425C632.067 198.468 628.837 193.825 626.495 188.495C624.153 183.085 622.982 177.15 622.982 170.689C622.982 164.229 624.153 158.334 626.495 153.005C628.837 147.595 632.108 142.911 636.307 138.954C640.506 134.997 645.472 131.97 651.205 129.87C657.019 127.69 663.358 126.6 670.222 126.6ZM844.693 126.6C850.265 126.6 855.716 127.245 861.046 128.537C866.456 129.748 871.261 131.566 875.46 133.988L868.071 151.794C864.034 149.614 860.036 147.999 856.079 146.949C852.122 145.819 848.287 145.253 844.572 145.253C841.262 145.253 838.597 145.616 836.578 146.343C834.559 146.989 833.106 147.877 832.218 149.008C831.33 150.138 830.885 151.43 830.885 152.884C830.885 154.741 831.733 156.235 833.429 157.365C835.205 158.415 837.507 159.304 840.333 160.03C843.24 160.676 846.389 161.363 849.78 162.09C853.253 162.817 856.685 163.745 860.076 164.876C863.548 165.926 866.698 167.379 869.524 169.236C872.351 171.013 874.612 173.395 876.308 176.383C878.084 179.29 878.973 182.964 878.973 187.405C878.973 192.331 877.559 196.894 874.732 201.093C871.987 205.211 867.828 208.521 862.257 211.024C856.766 213.528 849.821 214.779 841.423 214.779C834.478 214.779 827.776 213.932 821.316 212.236C814.937 210.46 809.728 208.199 805.69 205.453L813.563 187.769C817.359 190.191 821.72 192.21 826.646 193.825C831.652 195.359 836.618 196.126 841.544 196.126C844.855 196.126 847.519 195.844 849.538 195.278C851.557 194.632 853.011 193.824 853.899 192.855C854.868 191.806 855.353 190.594 855.353 189.222C855.352 187.284 854.464 185.75 852.688 184.619C850.911 183.489 848.609 182.56 845.783 181.833C842.957 181.106 839.808 180.38 836.336 179.653C832.944 178.927 829.512 177.998 826.04 176.867C822.648 175.737 819.539 174.283 816.713 172.507C813.887 170.65 811.585 168.267 809.809 165.36C808.032 162.373 807.145 158.618 807.145 154.096C807.145 149.008 808.517 144.405 811.263 140.287C814.089 136.169 818.288 132.858 823.859 130.354C829.431 127.851 836.376 126.6 844.693 126.6ZM503.003 213.084H479.02V128.295H503.003V213.084ZM582.082 173.479V128.295H605.581V213.084H585.837L548.409 167.898V213.084H524.91V128.295H544.654L582.082 173.479ZM791.897 146.828H749.14V161.12H786.81V179.047H749.14V194.552H793.472V213.084H725.398V128.295H791.897V146.828ZM918.879 213.084H894.896V128.295H918.879V213.084ZM964.77 194.067H1005.23V213.084H940.787V128.295H964.77V194.067Z" fill="black"/>
<path d="M963.735 250.796C965.302 250.796 966.706 251.108 967.95 251.729C968.792 252.15 969.518 252.729 970.128 253.467V251.004H974.239V266.656C974.239 269.996 973.387 272.45 971.683 274.017C969.978 275.606 967.513 276.4 964.288 276.4C962.583 276.4 960.913 276.17 959.277 275.709C957.665 275.271 956.34 274.627 955.304 273.774L957.239 270.526C958.045 271.194 959.059 271.725 960.279 272.116C961.523 272.531 962.779 272.738 964.046 272.738C966.073 272.738 967.559 272.266 968.504 271.321C969.448 270.4 969.92 269.005 969.92 267.14V266.165C969.355 266.795 968.699 267.305 967.95 267.693C966.706 268.315 965.301 268.626 963.735 268.626C961.985 268.626 960.395 268.258 958.967 267.521C957.562 266.76 956.445 265.712 955.615 264.376C954.809 263.04 954.405 261.473 954.405 259.677C954.405 257.903 954.809 256.348 955.615 255.012C956.445 253.676 957.562 252.639 958.967 251.902C960.395 251.165 961.985 250.796 963.735 250.796ZM489.282 244.922C490.733 244.922 492.173 245.106 493.602 245.475C495.03 245.843 496.273 246.373 497.333 247.064L495.916 250.555C494.833 249.91 493.716 249.437 492.564 249.138C491.413 248.815 490.307 248.654 489.247 248.654C488.003 248.654 486.99 248.804 486.207 249.104C485.447 249.403 484.882 249.795 484.514 250.278C484.168 250.762 483.995 251.315 483.995 251.937C483.995 252.674 484.249 253.273 484.756 253.733C485.286 254.171 485.965 254.516 486.794 254.77C487.646 255.023 488.591 255.277 489.628 255.53C490.664 255.761 491.69 256.026 492.703 256.325C493.74 256.625 494.673 257.016 495.502 257.5C496.354 257.984 497.033 258.64 497.54 259.469C498.07 260.298 498.335 261.346 498.335 262.613C498.335 263.903 497.978 265.101 497.264 266.207C496.573 267.29 495.502 268.165 494.051 268.833C492.6 269.478 490.768 269.801 488.557 269.801C486.668 269.801 484.859 269.536 483.132 269.006C481.404 268.453 480.033 267.751 479.02 266.898L480.574 263.408C481.542 264.168 482.74 264.802 484.168 265.309C485.596 265.815 487.059 266.069 488.557 266.069C489.823 266.069 490.849 265.931 491.632 265.654C492.415 265.378 492.991 265.009 493.359 264.549C493.728 264.065 493.912 263.524 493.912 262.925C493.912 262.188 493.647 261.6 493.117 261.162C492.587 260.702 491.896 260.344 491.044 260.091C490.215 259.814 489.282 259.561 488.245 259.331C487.232 259.101 486.206 258.836 485.17 258.536C484.156 258.214 483.223 257.811 482.371 257.327C481.542 256.82 480.863 256.152 480.333 255.322C479.803 254.493 479.538 253.433 479.538 252.144C479.538 250.831 479.883 249.632 480.574 248.55C481.288 247.444 482.36 246.569 483.788 245.924C485.239 245.256 487.071 244.922 489.282 244.922ZM518.928 250.796C520.172 250.796 521.427 250.935 522.694 251.211C523.961 251.487 525.01 251.879 525.839 252.386L524.18 255.668C523.304 255.138 522.418 254.781 521.52 254.597C520.644 254.389 519.769 254.286 518.894 254.286C517.581 254.286 516.601 254.482 515.956 254.874C515.334 255.266 515.023 255.761 515.023 256.359C515.023 256.912 515.231 257.327 515.646 257.604C516.06 257.88 516.602 258.099 517.27 258.26C517.937 258.421 518.674 258.56 519.48 258.675C520.31 258.767 521.128 258.917 521.935 259.124C522.741 259.331 523.478 259.619 524.146 259.987C524.837 260.333 525.389 260.829 525.804 261.474C526.218 262.119 526.426 262.959 526.426 263.996C526.426 265.148 526.081 266.15 525.39 267.002C524.722 267.854 523.765 268.522 522.521 269.006C521.278 269.467 519.792 269.697 518.064 269.697C516.521 269.697 515.035 269.501 513.606 269.109C512.201 268.695 511.084 268.2 510.255 267.624L511.914 264.341C512.743 264.871 513.733 265.309 514.885 265.654C516.037 266 517.189 266.173 518.341 266.173C519.7 266.173 520.678 265.989 521.277 265.62C521.899 265.252 522.211 264.756 522.211 264.134C522.211 263.627 522.003 263.248 521.589 262.994C521.174 262.718 520.633 262.51 519.965 262.372C519.297 262.234 518.548 262.106 517.719 261.991C516.913 261.876 516.095 261.726 515.266 261.542C514.459 261.335 513.722 261.047 513.054 260.679C512.386 260.287 511.844 259.769 511.43 259.124C511.015 258.479 510.808 257.626 510.808 256.566C510.808 255.392 511.142 254.379 511.81 253.526C512.478 252.651 513.411 251.982 514.608 251.521C515.829 251.038 517.269 250.796 518.928 250.796ZM535.053 251.142H539.993V254.597H535.053V263.374C535.053 264.249 535.271 264.928 535.709 265.412C536.17 265.896 536.803 266.138 537.609 266.138C538.577 266.138 539.383 265.885 540.028 265.378L541.237 268.453C540.731 268.868 540.109 269.178 539.372 269.386C538.635 269.593 537.874 269.697 537.091 269.697C535.064 269.697 533.497 269.179 532.392 268.143C531.286 267.083 530.733 265.528 530.733 263.478V254.597H527.692V251.142H530.733V246.926H535.053V251.142ZM552.2 250.796C553.997 250.796 555.598 251.188 557.003 251.971C558.408 252.754 559.514 253.86 560.32 255.288C561.127 256.716 561.529 258.398 561.529 260.333C561.529 260.517 561.518 260.725 561.495 260.955C561.495 261.185 561.483 261.404 561.46 261.611H546.983C547.102 262.249 547.319 262.837 547.639 263.374C548.145 264.226 548.86 264.883 549.781 265.344C550.703 265.804 551.762 266.034 552.96 266.034C553.997 266.034 554.93 265.873 555.759 265.551C556.588 265.228 557.325 264.721 557.97 264.03L560.285 266.691C559.456 267.659 558.407 268.407 557.141 268.937C555.897 269.443 554.469 269.697 552.856 269.697C550.806 269.697 549.009 269.294 547.466 268.487C545.946 267.658 544.76 266.53 543.907 265.102C543.078 263.673 542.663 262.049 542.663 260.229C542.663 258.387 543.066 256.763 543.872 255.357C544.701 253.929 545.831 252.812 547.259 252.006C548.71 251.2 550.357 250.796 552.2 250.796ZM609.103 250.796C611.775 250.796 613.837 251.441 615.288 252.731C616.762 253.998 617.499 255.968 617.499 258.64V269.455H613.422V267.216C612.993 267.858 612.406 268.386 611.66 268.799C610.601 269.398 609.253 269.697 607.617 269.697C606.235 269.697 605.026 269.467 603.989 269.006C602.953 268.522 602.146 267.865 601.57 267.036C601.018 266.184 600.741 265.228 600.741 264.169C600.741 263.132 600.983 262.199 601.467 261.37C601.974 260.541 602.791 259.884 603.92 259.4C605.049 258.917 606.546 258.675 608.412 258.675H613.181V258.398C613.181 257.131 612.8 256.152 612.04 255.461C611.28 254.747 610.128 254.39 608.585 254.39C607.548 254.39 606.523 254.552 605.51 254.874C604.519 255.196 603.678 255.645 602.987 256.221L601.294 253.077C602.284 252.317 603.459 251.752 604.818 251.384C606.2 250.992 607.628 250.796 609.103 250.796ZM650.629 269.455H646.518V267.055C645.978 267.712 645.345 268.248 644.617 268.66C643.396 269.351 641.991 269.697 640.401 269.697C638.628 269.697 637.027 269.306 635.599 268.522C634.193 267.716 633.088 266.61 632.281 265.205C631.475 263.8 631.072 262.141 631.072 260.229C631.072 258.318 631.475 256.659 632.281 255.254C633.088 253.849 634.193 252.754 635.599 251.971C637.027 251.188 638.628 250.796 640.401 250.796C641.945 250.796 643.327 251.142 644.548 251.833C645.225 252.203 645.824 252.684 646.345 253.273V243.816H650.629V269.455ZM664.331 250.796C666.128 250.796 667.729 251.188 669.134 251.971C670.539 252.754 671.645 253.86 672.451 255.288C673.257 256.716 673.66 258.398 673.66 260.333C673.66 260.517 673.649 260.725 673.626 260.955C673.626 261.185 673.614 261.404 673.591 261.611H659.114C659.232 262.249 659.45 262.837 659.77 263.374C660.276 264.226 660.991 264.883 661.912 265.344C662.833 265.804 663.893 266.034 665.091 266.034C666.127 266.034 667.06 265.873 667.89 265.551C668.719 265.228 669.456 264.721 670.101 264.03L672.416 266.691C671.587 267.659 670.538 268.407 669.271 268.937C668.028 269.443 666.6 269.697 664.987 269.697C662.937 269.697 661.14 269.294 659.597 268.487C658.077 267.658 656.89 266.53 656.038 265.102C655.209 263.673 654.794 262.049 654.794 260.229C654.794 258.387 655.197 256.763 656.003 255.357C656.832 253.929 657.961 252.812 659.39 252.006C660.841 251.2 662.488 250.796 664.331 250.796ZM742.825 250.796C744.737 250.796 746.43 251.2 747.904 252.006C749.401 252.812 750.565 253.917 751.395 255.322C752.247 256.727 752.673 258.364 752.673 260.229C752.673 262.049 752.247 263.673 751.395 265.102C750.565 266.53 749.402 267.658 747.904 268.487C746.43 269.294 744.737 269.697 742.825 269.697C740.936 269.697 739.255 269.294 737.78 268.487C736.306 267.658 735.143 266.53 734.291 265.102C733.439 263.673 733.012 262.049 733.012 260.229C733.012 258.387 733.439 256.763 734.291 255.357C735.143 253.929 736.306 252.812 737.78 252.006C739.255 251.2 740.936 250.796 742.825 250.796ZM814.569 250.796C817.241 250.796 819.304 251.441 820.755 252.731C822.229 253.998 822.966 255.968 822.966 258.64V269.455H818.889V267.216C818.46 267.858 817.872 268.386 817.126 268.799C816.066 269.398 814.719 269.697 813.084 269.697C811.702 269.697 810.492 269.467 809.455 269.006C808.419 268.522 807.613 267.865 807.037 267.036C806.484 266.184 806.207 265.228 806.207 264.169C806.207 263.133 806.449 262.199 806.933 261.37C807.439 260.541 808.258 259.884 809.387 259.4C810.515 258.917 812.012 258.675 813.878 258.675H818.646V258.398C818.646 257.132 818.267 256.152 817.507 255.461C816.747 254.747 815.594 254.39 814.051 254.39C813.014 254.39 811.989 254.552 810.976 254.874C809.985 255.197 809.144 255.645 808.453 256.221L806.76 253.077C807.75 252.317 808.926 251.752 810.285 251.384C811.667 250.992 813.095 250.796 814.569 250.796ZM837.009 250.796C838.805 250.796 840.383 251.165 841.742 251.902C843.124 252.616 844.173 253.676 844.887 255.081L841.569 257.016C841.017 256.141 840.337 255.496 839.531 255.081C838.748 254.666 837.895 254.459 836.974 254.459C835.914 254.459 834.959 254.69 834.106 255.15C833.254 255.611 832.585 256.279 832.102 257.154C831.618 258.007 831.376 259.032 831.376 260.229C831.376 261.427 831.618 262.464 832.102 263.339C832.585 264.191 833.254 264.848 834.106 265.309C834.959 265.769 835.914 266 836.974 266C837.895 266 838.748 265.793 839.531 265.378C840.337 264.963 841.017 264.318 841.569 263.443L844.887 265.378C844.173 266.76 843.124 267.832 841.742 268.592C840.383 269.329 838.805 269.697 837.009 269.697C835.074 269.697 833.346 269.294 831.825 268.487C830.328 267.658 829.153 266.53 828.301 265.102C827.448 263.673 827.022 262.049 827.022 260.229C827.022 258.387 827.449 256.763 828.301 255.357C829.153 253.929 830.328 252.812 831.825 252.006C833.346 251.2 835.074 250.796 837.009 250.796ZM866.732 250.796C868.644 250.796 870.338 251.2 871.812 252.006C873.309 252.812 874.473 253.917 875.302 255.322C876.154 256.727 876.581 258.364 876.581 260.229C876.581 262.049 876.154 263.673 875.302 265.102C874.473 266.53 873.31 267.658 871.812 268.487C870.338 269.294 868.644 269.697 866.732 269.697C864.844 269.697 863.162 269.294 861.688 268.487C860.214 267.658 859.05 266.53 858.198 265.102C857.346 263.673 856.92 262.049 856.92 260.229C856.92 258.387 857.346 256.763 858.198 255.357C859.05 253.929 860.213 252.812 861.688 252.006C863.162 251.2 864.844 250.796 866.732 250.796ZM942.447 250.796C944.244 250.796 945.845 251.188 947.25 251.971C948.655 252.754 949.761 253.86 950.567 255.288C951.374 256.716 951.777 258.398 951.777 260.333C951.777 260.517 951.765 260.725 951.742 260.955C951.742 261.185 951.731 261.404 951.708 261.611H937.231C937.35 262.249 937.567 262.837 937.887 263.374C938.393 264.226 939.107 264.883 940.028 265.344C940.95 265.804 942.01 266.034 943.208 266.034C944.244 266.034 945.178 265.873 946.007 265.551C946.836 265.228 947.573 264.721 948.218 264.03L950.533 266.691C949.704 267.659 948.655 268.407 947.389 268.937C946.145 269.443 944.717 269.697 943.104 269.697C941.054 269.697 939.257 269.294 937.714 268.487C936.194 267.658 935.007 266.53 934.154 265.102C933.325 263.673 932.911 262.049 932.911 260.229C932.911 258.387 933.314 256.763 934.12 255.357C934.949 253.929 936.078 252.812 937.506 252.006C938.957 251.2 940.604 250.796 942.447 250.796ZM986.967 250.796C989.639 250.796 991.701 251.441 993.152 252.731C994.626 253.998 995.363 255.968 995.363 258.64V269.455H991.286V267.216C990.857 267.858 990.27 268.386 989.523 268.799C988.464 269.398 987.116 269.697 985.48 269.697C984.099 269.697 982.889 269.467 981.853 269.006C980.816 268.522 980.009 267.865 979.434 267.036C978.881 266.184 978.605 265.228 978.604 264.169C978.604 263.133 978.847 262.199 979.33 261.37C979.837 260.541 980.655 259.884 981.783 259.4C982.912 258.917 984.41 258.675 986.275 258.675H991.044V258.398C991.044 257.132 990.664 256.152 989.904 255.461C989.144 254.747 987.992 254.39 986.448 254.39C985.412 254.39 984.387 254.552 983.373 254.874C982.383 255.197 981.542 255.645 980.851 256.221L979.157 253.077C980.148 252.317 981.323 251.752 982.682 251.384C984.064 250.992 985.493 250.796 986.967 250.796ZM506.693 269.455H502.375V251.004H506.693V269.455ZM588.968 250.796C590.442 250.796 591.743 251.084 592.872 251.66C594.024 252.236 594.922 253.123 595.567 254.32C596.212 255.495 596.534 257.016 596.534 258.882V269.455H592.216V259.435C592.216 257.799 591.859 256.578 591.145 255.771C590.43 254.965 589.405 254.563 588.069 254.562C587.125 254.562 586.284 254.77 585.547 255.185C584.833 255.599 584.268 256.21 583.854 257.016C583.462 257.822 583.266 258.847 583.266 260.091V269.455H578.946V259.435C578.946 257.799 578.59 256.578 577.876 255.771C577.162 254.965 576.136 254.562 574.8 254.562C573.856 254.563 573.015 254.77 572.278 255.185C571.564 255.599 571 256.21 570.585 257.016C570.193 257.822 569.997 258.847 569.997 260.091V269.455H565.678V251.004H569.79V253.344C570.326 252.679 570.982 252.141 571.76 251.729C572.958 251.108 574.317 250.796 575.837 250.796C577.565 250.796 579.062 251.222 580.329 252.074C581.04 252.544 581.616 253.147 582.061 253.882C582.614 253.164 583.315 252.55 584.164 252.04C585.546 251.211 587.148 250.796 588.968 250.796ZM692.265 269.455H687.773V245.268H692.265V269.455ZM708.862 250.796C710.337 250.796 711.65 251.084 712.802 251.66C713.976 252.236 714.898 253.123 715.566 254.32C716.234 255.495 716.568 257.016 716.568 258.882V269.455H712.249V259.435C712.249 257.799 711.857 256.578 711.074 255.771C710.314 254.965 709.242 254.562 707.86 254.562C706.847 254.563 705.948 254.77 705.165 255.185C704.382 255.599 703.772 256.222 703.334 257.051C702.919 257.857 702.712 258.882 702.712 260.126V269.455H698.393V251.004H702.505V253.395C703.066 252.726 703.757 252.182 704.578 251.764C705.822 251.119 707.25 250.796 708.862 250.796ZM729.234 243.574C729.995 243.574 730.709 243.655 731.377 243.816C732.068 243.978 732.644 244.231 733.104 244.576L731.93 247.824C731.607 247.571 731.239 247.387 730.824 247.271C730.41 247.133 729.983 247.064 729.545 247.064C728.647 247.065 727.967 247.318 727.507 247.824C727.046 248.308 726.815 249.046 726.815 250.036V251.142H731.895V254.597H726.954V269.455H722.635V254.597H719.594V251.142H722.635V249.967C722.635 248.032 723.199 246.489 724.328 245.337C725.48 244.162 727.115 243.574 729.234 243.574ZM767.48 254.908C767.296 254.862 767.123 254.839 766.962 254.839C766.801 254.816 766.64 254.805 766.479 254.805C764.843 254.805 763.542 255.288 762.574 256.256C761.607 257.2 761.123 258.617 761.123 260.506V269.455H756.804V251.004H760.915V253.704C761.445 252.891 762.148 252.244 763.023 251.764C764.221 251.119 765.707 250.796 767.48 250.796V254.908ZM794.434 250.796C795.908 250.796 797.209 251.084 798.338 251.66C799.49 252.236 800.388 253.123 801.033 254.32C801.678 255.495 802.001 257.016 802.001 258.882V269.455H797.682V259.435C797.682 257.799 797.324 256.578 796.61 255.771C795.896 254.965 794.871 254.562 793.535 254.562C792.591 254.563 791.75 254.77 791.013 255.185C790.299 255.599 789.734 256.209 789.319 257.016C788.928 257.822 788.732 258.847 788.732 260.091V269.455H784.413V259.435C784.413 257.799 784.056 256.578 783.342 255.771C782.628 254.965 781.602 254.562 780.267 254.562C779.322 254.563 778.481 254.77 777.744 255.185C777.03 255.599 776.465 256.209 776.051 257.016C775.659 257.822 775.464 258.847 775.464 260.091V269.455H771.145V251.004H775.257V253.343C775.792 252.679 776.448 252.141 777.226 251.729C778.423 251.108 779.783 250.796 781.304 250.796C783.031 250.796 784.528 251.222 785.795 252.074C786.505 252.544 787.082 253.147 787.527 253.882C788.081 253.164 788.782 252.549 789.631 252.04C791.013 251.211 792.614 250.796 794.434 250.796ZM852.771 269.455H848.452V251.004H852.771V269.455ZM891.181 250.796C892.655 250.796 893.968 251.084 895.12 251.66C896.295 252.236 897.216 253.123 897.884 254.32C898.552 255.495 898.886 257.016 898.886 258.882V269.455H894.566V259.435C894.566 257.799 894.175 256.578 893.392 255.771C892.631 254.966 891.561 254.563 890.179 254.562C889.165 254.562 888.267 254.77 887.483 255.185C886.7 255.599 886.09 256.221 885.652 257.051C885.238 257.857 885.03 258.882 885.03 260.126V269.455H880.711V251.004H884.822V253.396C885.383 252.727 886.074 252.182 886.896 251.764C888.139 251.119 889.568 250.796 891.181 250.796ZM918.821 265.654H931.468V269.455H914.329V245.268H918.821V265.654ZM1005.23 269.455H1000.91V243.816H1005.23V269.455ZM608.723 261.542C607.249 261.542 606.258 261.784 605.751 262.268C605.244 262.728 604.991 263.305 604.991 263.996C604.991 264.779 605.302 265.401 605.924 265.861C606.546 266.322 607.41 266.553 608.516 266.553C609.575 266.553 610.519 266.311 611.349 265.827C612.201 265.343 612.812 264.629 613.181 263.685V261.542H608.723ZM814.189 261.542C812.715 261.542 811.725 261.784 811.218 262.268C810.711 262.728 810.457 263.305 810.457 263.996C810.457 264.779 810.769 265.401 811.391 265.861C812.013 266.322 812.877 266.553 813.982 266.553C815.042 266.553 815.986 266.311 816.815 265.827C817.668 265.343 818.278 264.629 818.646 263.685V261.542H814.189ZM986.587 261.542C985.113 261.542 984.122 261.784 983.615 262.268C983.108 262.728 982.854 263.305 982.854 263.996C982.855 264.779 983.166 265.401 983.788 265.861C984.41 266.322 985.273 266.553 986.379 266.553C987.439 266.553 988.384 266.311 989.213 265.827C990.065 265.343 990.675 264.629 991.044 263.685V261.542H986.587ZM640.92 254.459C639.883 254.459 638.95 254.69 638.121 255.15C637.315 255.611 636.658 256.279 636.151 257.154C635.668 258.007 635.426 259.032 635.426 260.229C635.426 261.404 635.668 262.429 636.151 263.305C636.658 264.18 637.315 264.848 638.121 265.309C638.95 265.769 639.883 266 640.92 266C641.956 266 642.877 265.769 643.684 265.309C644.513 264.848 645.17 264.18 645.653 263.305C646.16 262.429 646.414 261.404 646.414 260.229C646.414 259.032 646.16 258.007 645.653 257.154C645.17 256.279 644.513 255.611 643.684 255.15C642.877 254.69 641.956 254.459 640.92 254.459ZM742.859 254.459C741.8 254.459 740.856 254.69 740.026 255.15C739.22 255.611 738.576 256.279 738.092 257.154C737.608 258.007 737.366 259.032 737.366 260.229C737.366 261.404 737.608 262.429 738.092 263.305C738.576 264.18 739.22 264.848 740.026 265.309C740.856 265.769 741.789 266 742.825 266C743.885 266 744.83 265.769 745.659 265.309C746.488 264.848 747.133 264.18 747.594 263.305C748.077 262.429 748.319 261.404 748.319 260.229C748.319 259.032 748.077 258.007 747.594 257.154C747.133 256.279 746.488 255.611 745.659 255.15C744.83 254.69 743.896 254.459 742.859 254.459ZM866.768 254.459C865.708 254.459 864.763 254.69 863.934 255.15C863.128 255.611 862.483 256.279 861.999 257.154C861.515 258.007 861.273 259.032 861.273 260.229C861.273 261.404 861.515 262.429 861.999 263.305C862.483 264.18 863.128 264.848 863.934 265.309C864.763 265.769 865.696 266 866.732 266C867.792 266 868.737 265.769 869.566 265.309C870.396 264.848 871.04 264.18 871.501 263.305C871.985 262.429 872.227 261.404 872.227 260.229C872.227 259.032 871.985 258.007 871.501 257.154C871.04 256.279 870.396 255.611 869.566 255.15C868.737 254.69 867.804 254.459 866.768 254.459ZM964.392 254.459C963.309 254.459 962.329 254.678 961.454 255.115C960.602 255.53 959.934 256.14 959.45 256.946C958.989 257.73 958.76 258.64 958.76 259.677C958.76 260.713 958.99 261.634 959.45 262.44C959.934 263.224 960.602 263.846 961.454 264.307C962.329 264.744 963.309 264.963 964.392 264.963C965.474 264.963 966.442 264.744 967.294 264.307C968.146 263.846 968.803 263.224 969.264 262.44C969.747 261.634 969.989 260.713 969.989 259.677C969.989 258.64 969.747 257.73 969.264 256.946C968.803 256.14 968.146 255.53 967.294 255.115C966.442 254.678 965.474 254.459 964.392 254.459ZM552.2 254.252C551.141 254.252 550.207 254.482 549.4 254.942C548.617 255.403 547.996 256.049 547.535 256.878C547.236 257.429 547.042 258.051 546.947 258.743H557.441C557.357 258.047 557.156 257.413 556.83 256.843C556.369 256.037 555.736 255.403 554.93 254.942C554.147 254.482 553.237 254.252 552.2 254.252ZM664.331 254.252C663.271 254.252 662.338 254.482 661.531 254.942C660.748 255.403 660.127 256.049 659.666 256.878C659.367 257.429 659.173 258.051 659.078 258.743H669.572C669.488 258.047 669.287 257.413 668.961 256.843C668.5 256.037 667.867 255.403 667.061 254.942C666.277 254.482 665.367 254.252 664.331 254.252ZM942.447 254.252C941.388 254.252 940.455 254.482 939.648 254.942C938.865 255.403 938.244 256.049 937.783 256.878C937.484 257.43 937.289 258.051 937.194 258.743H947.689C947.606 258.047 947.404 257.413 947.078 256.843C946.617 256.037 945.984 255.403 945.178 254.942C944.395 254.482 943.484 254.252 942.447 254.252ZM867.527 248.481H863.796L868.461 243.747H873.54L867.527 248.481ZM504.552 242.779C505.358 242.779 506.015 243.022 506.521 243.506C507.051 243.967 507.315 244.554 507.315 245.268C507.315 246.028 507.062 246.672 506.556 247.202C506.049 247.709 505.381 247.963 504.552 247.963C503.746 247.963 503.078 247.709 502.548 247.202C502.041 246.695 501.787 246.085 501.787 245.371C501.787 244.634 502.041 244.024 502.548 243.54C503.078 243.033 503.746 242.779 504.552 242.779ZM850.629 242.779C851.435 242.779 852.091 243.022 852.598 243.506C853.127 243.967 853.393 244.553 853.393 245.268C853.393 246.028 853.139 246.672 852.633 247.202C852.126 247.709 851.458 247.963 850.629 247.963C849.823 247.963 849.154 247.709 848.624 247.202C848.118 246.695 847.864 246.085 847.864 245.371C847.864 244.634 848.117 244.024 848.624 243.54C849.154 243.033 849.823 242.779 850.629 242.779Z" fill="black"/>
<path d="M859.821 317.458C858.666 317.458 857.622 317.203 856.688 316.693C855.77 316.167 855.04 315.394 854.497 314.375C853.97 313.356 853.707 312.082 853.707 310.553C853.707 309.025 853.978 307.751 854.522 306.732C855.082 305.712 855.821 304.948 856.739 304.439C857.673 303.929 858.7 303.674 859.821 303.674C861.146 303.674 862.318 303.963 863.337 304.541C864.356 305.118 865.163 305.925 865.758 306.961C866.352 307.98 866.649 309.177 866.649 310.553C866.649 311.929 866.352 313.135 865.758 314.171C865.163 315.207 864.356 316.014 863.337 316.591C862.318 317.169 861.146 317.458 859.821 317.458ZM852.662 317.305V298.4H855.108V307.394L854.853 310.528L855.006 313.662V317.305H852.662ZM859.618 315.318C860.484 315.318 861.257 315.122 861.936 314.732C862.632 314.341 863.176 313.789 863.567 313.076C863.974 312.345 864.178 311.504 864.178 310.553C864.178 309.585 863.974 308.753 863.567 308.056C863.176 307.343 862.632 306.791 861.936 306.4C861.257 306.01 860.484 305.814 859.618 305.814C858.768 305.814 857.995 306.01 857.299 306.4C856.62 306.791 856.076 307.343 855.668 308.056C855.278 308.753 855.082 309.585 855.082 310.553C855.082 311.504 855.278 312.345 855.668 313.076C856.076 313.789 856.62 314.341 857.299 314.732C857.995 315.122 858.768 315.318 859.618 315.318Z" fill="black"/>
<path d="M870.242 322.4C869.596 322.4 868.968 322.29 868.356 322.069C867.745 321.865 867.218 321.56 866.777 321.152L867.821 319.318C868.161 319.64 868.535 319.887 868.942 320.056C869.35 320.226 869.783 320.311 870.242 320.311C870.836 320.311 871.329 320.158 871.719 319.853C872.11 319.547 872.475 319.003 872.815 318.222L873.656 316.362L873.91 316.056L879.21 303.802H881.605L875.057 318.655C874.666 319.606 874.225 320.354 873.732 320.897C873.256 321.441 872.73 321.823 872.152 322.044C871.575 322.281 870.938 322.4 870.242 322.4ZM873.452 317.738L867.286 303.802H869.834L875.082 315.827L873.452 317.738Z" fill="black"/>
<path d="M891.086 317.305V299.47H893.634V317.305H891.086Z" fill="black"/>
<path d="M898.973 317.305V299.47H901.062L912.859 314.12H911.763V299.47H914.311V317.305H912.222L900.425 302.655H901.521V317.305H898.973Z" fill="black"/>
<path d="M927.7 317.509C926.324 317.509 925.059 317.288 923.904 316.846C922.749 316.388 921.747 315.751 920.897 314.935C920.048 314.103 919.386 313.135 918.91 312.031C918.435 310.927 918.197 309.712 918.197 308.388C918.197 307.063 918.435 305.848 918.91 304.744C919.386 303.64 920.048 302.681 920.897 301.865C921.764 301.033 922.774 300.396 923.929 299.955C925.084 299.496 926.358 299.267 927.751 299.267C929.161 299.267 930.452 299.496 931.623 299.955C932.795 300.413 933.789 301.101 934.604 302.018L933.025 303.598C932.294 302.884 931.496 302.366 930.63 302.044C929.781 301.704 928.855 301.534 927.853 301.534C926.834 301.534 925.883 301.704 924.999 302.044C924.133 302.383 923.377 302.859 922.732 303.47C922.103 304.082 921.611 304.812 921.254 305.662C920.914 306.494 920.745 307.403 920.745 308.388C920.745 309.356 920.914 310.265 921.254 311.114C921.611 311.946 922.103 312.676 922.732 313.305C923.377 313.916 924.133 314.392 924.999 314.732C925.866 315.071 926.808 315.241 927.827 315.241C928.778 315.241 929.687 315.097 930.553 314.808C931.437 314.502 932.252 314.001 932.999 313.305L934.452 315.241C933.568 315.989 932.532 316.558 931.343 316.948C930.171 317.322 928.957 317.509 927.7 317.509ZM932.006 314.91V308.286H934.452V315.241L932.006 314.91Z" fill="black"/>
<path d="M941.648 307.165H950.82V309.33H941.648V307.165ZM941.877 315.088H952.272V317.305H939.33V299.47H951.915V301.687H941.877V315.088Z" fill="black"/>
<path d="M964.347 317.509C962.988 317.509 961.732 317.288 960.577 316.846C959.439 316.388 958.445 315.751 957.596 314.935C956.763 314.103 956.109 313.135 955.634 312.031C955.158 310.927 954.92 309.712 954.92 308.388C954.92 307.063 955.158 305.848 955.634 304.744C956.109 303.64 956.772 302.681 957.621 301.865C958.47 301.033 959.464 300.396 960.602 299.955C961.757 299.496 963.014 299.267 964.373 299.267C965.748 299.267 967.014 299.504 968.169 299.98C969.341 300.439 970.334 301.127 971.15 302.044L969.494 303.649C968.814 302.935 968.05 302.409 967.201 302.069C966.351 301.712 965.443 301.534 964.475 301.534C963.472 301.534 962.538 301.704 961.672 302.044C960.823 302.383 960.084 302.859 959.455 303.47C958.827 304.082 958.334 304.812 957.978 305.662C957.638 306.494 957.468 307.403 957.468 308.388C957.468 309.373 957.638 310.29 957.978 311.139C958.334 311.972 958.827 312.693 959.455 313.305C960.084 313.916 960.823 314.392 961.672 314.732C962.538 315.071 963.472 315.241 964.475 315.241C965.443 315.241 966.351 315.071 967.201 314.732C968.05 314.375 968.814 313.831 969.494 313.101L971.15 314.706C970.334 315.623 969.341 316.32 968.169 316.795C967.014 317.271 965.74 317.509 964.347 317.509Z" fill="black"/>
<path d="M971.661 317.305L979.737 299.47H982.259L990.361 317.305H987.686L980.476 300.897H981.495L974.285 317.305H971.661ZM975.1 312.846L975.788 310.808H985.826L986.565 312.846H975.1Z" fill="black"/>
<path d="M993.022 317.305V299.47H995.57V315.088H1005.23V317.305H993.022Z" fill="black"/>
</svg>
