<svg width="1105" height="437" viewBox="0 0 1105 437" fill="none" xmlns="http://www.w3.org/2000/svg">
<path d="M212.061 100.097C272.479 97.6365 325.172 142.487 332.365 202.413C333.703 213.581 335.022 225.468 324.779 232.769C312.469 241.536 294.658 233.517 293.438 218.501C292.74 209.891 292.838 203.653 290.368 195.111C273.059 135.176 194.241 120.091 155.973 169.577C118.207 218.422 150.837 289.29 212.002 293.196C218.457 293.61 222.373 292.793 228.071 296.847C243.903 308.114 236.11 332.507 216.824 333.137C180.209 334.328 142.6 313.477 121.72 284.124C67.9541 208.573 120.008 103.836 212.081 100.087L212.061 100.097Z" fill="#009340"/>
<path d="M319.563 285.896L384.114 193.715C398.382 178.099 422.421 195.319 412.217 213.877L331.293 329.733C325.28 337.556 314.624 338.422 307.135 332.045L238.698 263.608C224.725 246.378 246.472 225.213 263.485 239.303L310.392 286.211C313.335 288.503 316.808 288.425 319.563 285.886V285.896Z" fill="#009340"/>
<path d="M481.887 226.179V143.141H510.996V226.179H481.887ZM496.442 133.949C491.131 133.949 486.841 132.468 483.573 129.506C480.304 126.544 478.67 122.867 478.67 118.475C478.67 114.083 480.304 110.406 483.573 107.444C486.841 104.482 491.131 103.001 496.442 103.001C501.753 103.001 506.043 104.431 509.311 107.291C512.579 110.048 514.214 113.623 514.214 118.015C514.214 122.611 512.579 126.441 509.311 129.506C506.145 132.468 501.855 133.949 496.442 133.949Z" fill="black"/>
<path d="M583.995 141.762C590.43 141.762 596.252 143.09 601.461 145.745C606.67 148.299 610.755 152.282 613.717 157.695C616.781 163.109 618.314 170.105 618.314 178.685V226.179H589.204V183.434C589.204 177.51 587.979 173.22 585.527 170.565C583.178 167.807 579.859 166.428 575.569 166.428C572.505 166.428 569.696 167.143 567.143 168.573C564.589 169.901 562.598 171.995 561.168 174.855C559.738 177.714 559.023 181.442 559.023 186.039V226.179H529.914V143.141H557.644V166.735L552.282 159.84C555.448 153.814 559.789 149.32 565.304 146.358C570.82 143.294 577.05 141.762 583.995 141.762Z" fill="black"/>
<path d="M678.236 257.279C670.269 257.279 662.66 256.36 655.408 254.522C648.259 252.683 642.131 249.977 637.024 246.402L647.595 226.025C651.068 228.783 655.357 230.928 660.464 232.46C665.673 234.094 670.729 234.911 675.632 234.911C683.496 234.911 689.165 233.175 692.638 229.702C696.11 226.332 697.847 221.378 697.847 214.841V205.036L699.379 181.749L699.225 158.308V143.141H726.956V211.011C726.956 226.74 722.717 238.384 714.24 245.942C705.762 253.5 693.761 257.279 678.236 257.279ZM673.18 221.889C665.826 221.889 659.034 220.255 652.804 216.986C646.676 213.616 641.722 208.968 637.943 203.044C634.266 197.018 632.428 189.92 632.428 181.749C632.428 173.578 634.266 166.53 637.943 160.606C641.722 154.58 646.676 149.933 652.804 146.665C659.034 143.396 665.826 141.762 673.18 141.762C680.228 141.762 686.254 143.192 691.259 146.052C696.263 148.81 700.042 153.15 702.596 159.074C705.251 164.998 706.579 172.556 706.579 181.749C706.579 190.941 705.251 198.499 702.596 204.423C700.042 210.347 696.263 214.739 691.259 217.599C686.254 220.459 680.228 221.889 673.18 221.889ZM680.075 198.755C683.547 198.755 686.611 198.04 689.267 196.61C692.025 195.18 694.17 193.188 695.702 190.635C697.336 188.081 698.153 185.119 698.153 181.749C698.153 178.378 697.336 175.416 695.702 172.863C694.17 170.309 692.025 168.369 689.267 167.041C686.611 165.611 683.547 164.896 680.075 164.896C676.602 164.896 673.487 165.611 670.729 167.041C667.971 168.369 665.775 170.309 664.141 172.863C662.609 175.416 661.843 178.378 661.843 181.749C661.843 185.119 662.609 188.081 664.141 190.635C665.775 193.188 667.971 195.18 670.729 196.61C673.487 198.04 676.602 198.755 680.075 198.755Z" fill="black"/>
<path d="M789.169 227.557C779.364 227.557 770.785 225.719 763.431 222.042C756.179 218.263 750.51 213.156 746.425 206.721C742.441 200.185 740.45 192.78 740.45 184.507C740.45 176.233 742.39 168.88 746.272 162.445C750.255 155.908 755.719 150.852 762.665 147.277C769.61 143.601 777.423 141.762 786.105 141.762C794.276 141.762 801.732 143.447 808.473 146.818C815.214 150.086 820.576 154.938 824.56 161.372C828.543 167.807 830.535 175.621 830.535 184.813C830.535 185.834 830.484 187.009 830.382 188.337C830.28 189.664 830.177 190.89 830.075 192.014H764.35V176.693H814.601L803.571 180.983C803.673 177.204 802.958 173.935 801.426 171.178C799.996 168.42 797.953 166.275 795.297 164.743C792.744 163.211 789.731 162.445 786.258 162.445C782.786 162.445 779.722 163.211 777.066 164.743C774.513 166.275 772.521 168.471 771.091 171.331C769.661 174.089 768.946 177.357 768.946 181.136V185.579C768.946 189.664 769.763 193.188 771.397 196.15C773.134 199.112 775.585 201.41 778.751 203.044C781.917 204.576 785.697 205.343 790.088 205.343C794.174 205.343 797.647 204.781 800.506 203.657C803.468 202.432 806.379 200.593 809.239 198.142L824.56 214.075C820.576 218.467 815.674 221.838 809.852 224.187C804.03 226.434 797.136 227.557 789.169 227.557Z" fill="black"/>
<path d="M874.137 227.557C867.09 227.557 860.196 226.74 853.455 225.106C846.816 223.472 841.454 221.429 837.368 218.978L846.101 199.061C849.982 201.41 854.527 203.3 859.736 204.73C864.945 206.057 870.052 206.721 875.057 206.721C879.959 206.721 883.33 206.211 885.168 205.189C887.109 204.168 888.079 202.789 888.079 201.053C888.079 199.419 887.16 198.244 885.321 197.529C883.585 196.712 881.236 196.099 878.274 195.691C875.414 195.282 872.248 194.822 868.775 194.312C865.303 193.801 861.779 193.137 858.204 192.32C854.731 191.401 851.514 190.073 848.552 188.337C845.692 186.498 843.394 184.047 841.658 180.983C839.921 177.919 839.053 174.037 839.053 169.339C839.053 164.028 840.585 159.33 843.65 155.244C846.816 151.057 851.412 147.788 857.438 145.439C863.464 142.988 870.818 141.762 879.5 141.762C885.322 141.762 891.194 142.375 897.118 143.601C903.144 144.724 908.2 146.46 912.286 148.81L903.553 168.573C899.467 166.224 895.382 164.641 891.297 163.824C887.211 162.904 883.33 162.445 879.653 162.445C874.75 162.445 871.278 163.007 869.235 164.13C867.294 165.254 866.324 166.632 866.324 168.267C866.324 169.901 867.192 171.178 868.928 172.097C870.665 172.914 872.963 173.578 875.823 174.089C878.785 174.497 882.002 174.957 885.475 175.467C888.947 175.876 892.42 176.54 895.893 177.459C899.467 178.378 902.685 179.757 905.545 181.596C908.507 183.332 910.856 185.732 912.592 188.796C914.328 191.758 915.197 195.588 915.197 200.287C915.197 205.394 913.614 209.99 910.447 214.075C907.383 218.161 902.787 221.429 896.659 223.88C890.633 226.332 883.126 227.557 874.137 227.557Z" fill="#009340"/>
<path d="M927.74 226.179V143.141H956.85V226.179H927.74ZM942.295 133.949C936.984 133.949 932.694 132.468 929.426 129.506C926.157 126.544 924.523 122.867 924.523 118.475C924.523 114.083 926.157 110.406 929.426 107.444C932.694 104.482 936.984 103.001 942.295 103.001C947.606 103.001 951.896 104.431 955.164 107.291C958.433 110.048 960.067 113.623 960.067 118.015C960.067 122.611 958.433 126.441 955.164 129.506C951.998 132.468 947.708 133.949 942.295 133.949Z" fill="#009340"/>
<path d="M975.767 226.179V112.5H1004.88V226.179H975.767Z" fill="#009340"/>
<path d="M738.301 324.218C736.184 324.218 734.268 323.751 732.556 322.816C730.874 321.851 729.535 320.434 728.539 318.566C727.574 316.698 727.091 314.362 727.091 311.56C727.091 308.757 727.589 306.422 728.586 304.553C729.613 302.685 730.968 301.284 732.649 300.349C734.362 299.415 736.246 298.948 738.301 298.948C740.73 298.948 742.879 299.477 744.747 300.536C746.615 301.595 748.094 303.074 749.184 304.974C750.274 306.842 750.819 309.037 750.819 311.56C750.819 314.082 750.274 316.293 749.184 318.192C748.094 320.092 746.615 321.571 744.747 322.63C742.879 323.688 740.73 324.218 738.301 324.218ZM725.176 323.937V289.279H729.66V305.768L729.193 311.513L729.473 317.258V323.937H725.176ZM737.927 320.294C739.515 320.294 740.932 319.936 742.178 319.22C743.455 318.504 744.451 317.492 745.167 316.184C745.915 314.845 746.288 313.303 746.288 311.56C746.288 309.785 745.915 308.259 745.167 306.982C744.451 305.674 743.455 304.662 742.178 303.946C740.932 303.23 739.515 302.872 737.927 302.872C736.37 302.872 734.954 303.23 733.677 303.946C732.431 304.662 731.435 305.674 730.687 306.982C729.971 308.259 729.613 309.785 729.613 311.56C729.613 313.303 729.971 314.845 730.687 316.184C731.435 317.492 732.431 318.504 733.677 319.22C734.954 319.936 736.37 320.294 737.927 320.294Z" fill="black"/>
<path d="M757.405 333.279C756.221 333.279 755.069 333.077 753.948 332.672C752.827 332.298 751.862 331.738 751.052 330.991L752.967 327.627C753.59 328.219 754.275 328.671 755.023 328.982C755.77 329.293 756.564 329.449 757.405 329.449C758.495 329.449 759.398 329.169 760.114 328.608C760.83 328.048 761.5 327.051 762.122 325.619L763.664 322.209L764.131 321.649L773.846 299.182H778.237L766.233 326.413C765.517 328.157 764.707 329.527 763.804 330.523C762.932 331.52 761.967 332.221 760.908 332.625C759.849 333.061 758.681 333.279 757.405 333.279ZM763.29 324.732L751.986 299.182H756.657L766.279 321.228L763.29 324.732Z" fill="black"/>
<path d="M795.62 323.937V291.241H800.291V323.937H795.62Z" fill="black"/>
<path d="M810.079 323.937V291.241H813.91L835.536 318.099H833.527V291.241H838.198V323.937H834.368L812.742 297.08H814.75V323.937H810.079Z" fill="black"/>
<path d="M862.745 324.311C860.223 324.311 857.903 323.906 855.785 323.097C853.668 322.256 851.831 321.088 850.274 319.594C848.717 318.068 847.502 316.293 846.63 314.269C845.759 312.245 845.323 310.018 845.323 307.589C845.323 305.16 845.759 302.934 846.63 300.91C847.502 298.886 848.717 297.126 850.274 295.632C851.862 294.106 853.715 292.938 855.832 292.129C857.95 291.288 860.285 290.867 862.839 290.867C865.423 290.867 867.79 291.288 869.938 292.129C872.087 292.969 873.909 294.23 875.403 295.912L872.507 298.808C871.168 297.5 869.705 296.55 868.117 295.959C866.56 295.336 864.863 295.025 863.025 295.025C861.157 295.025 859.413 295.336 857.794 295.959C856.206 296.581 854.82 297.453 853.637 298.574C852.485 299.695 851.582 301.034 850.928 302.591C850.305 304.117 849.994 305.783 849.994 307.589C849.994 309.364 850.305 311.03 850.928 312.587C851.582 314.113 852.485 315.452 853.637 316.604C854.82 317.725 856.206 318.597 857.794 319.22C859.382 319.843 861.11 320.154 862.979 320.154C864.722 320.154 866.388 319.889 867.977 319.36C869.596 318.799 871.09 317.881 872.461 316.604L875.123 320.154C873.504 321.524 871.604 322.567 869.425 323.284C867.276 323.969 865.049 324.311 862.745 324.311ZM870.639 319.547V307.402H875.123V320.154L870.639 319.547Z" fill="black"/>
<path d="M888.317 305.347H905.132V309.318H888.317V305.347ZM888.737 319.874H907.794V323.937H884.066V291.241H907.14V295.305H888.737V319.874Z" fill="black"/>
<path d="M929.932 324.311C927.441 324.311 925.136 323.906 923.019 323.097C920.933 322.256 919.111 321.088 917.554 319.594C916.028 318.068 914.829 316.293 913.957 314.269C913.085 312.245 912.649 310.018 912.649 307.589C912.649 305.16 913.085 302.934 913.957 300.91C914.829 298.886 916.044 297.126 917.601 295.632C919.158 294.106 920.979 292.938 923.066 292.129C925.183 291.288 927.487 290.867 929.979 290.867C932.501 290.867 934.821 291.303 936.938 292.175C939.087 293.016 940.908 294.277 942.403 295.959L939.367 298.901C938.121 297.594 936.72 296.628 935.163 296.005C933.606 295.351 931.94 295.025 930.165 295.025C928.328 295.025 926.615 295.336 925.027 295.959C923.47 296.581 922.116 297.453 920.964 298.574C919.812 299.695 918.908 301.034 918.255 302.591C917.632 304.117 917.32 305.783 917.32 307.589C917.32 309.395 917.632 311.077 918.255 312.634C918.908 314.16 919.812 315.483 920.964 316.604C922.116 317.725 923.47 318.597 925.027 319.22C926.615 319.843 928.328 320.154 930.165 320.154C931.94 320.154 933.606 319.843 935.163 319.22C936.72 318.566 938.121 317.569 939.367 316.23L942.403 319.173C940.908 320.855 939.087 322.131 936.938 323.003C934.821 323.875 932.485 324.311 929.932 324.311Z" fill="black"/>
<path d="M943.34 323.937L958.147 291.241H962.771L977.624 323.937H972.72L959.501 293.857H961.37L948.151 323.937H943.34ZM949.646 315.763L950.907 312.027H969.31L970.665 315.763H949.646Z" fill="black"/>
<path d="M982.502 323.937V291.241H987.173V319.874H1004.88V323.937H982.502Z" fill="black"/>
</svg>
