<svg width="1114" height="449" viewBox="0 0 1114 449" fill="none" xmlns="http://www.w3.org/2000/svg">
<path d="M214.94 112.591C272.218 110.259 322.173 152.779 328.992 209.59C330.261 220.178 331.511 231.447 321.8 238.369C310.13 246.681 293.245 239.078 292.088 224.843C291.426 216.68 291.519 210.766 289.178 202.669C272.768 145.848 198.046 131.547 161.767 178.461C125.964 224.768 156.898 291.953 214.884 295.656C221.004 296.048 224.717 295.274 230.118 299.117C245.128 309.798 237.739 332.924 219.455 333.521C184.744 334.65 149.09 314.883 129.294 287.055C78.3227 215.43 127.671 116.136 214.959 112.582L214.94 112.591Z" fill="#009340"/>
<path d="M316.857 288.734L378.052 201.344C391.578 186.54 414.368 202.865 404.695 220.458L327.976 330.293C322.277 337.709 312.174 338.53 305.075 332.485L240.194 267.605C226.948 251.271 247.564 231.205 263.693 244.563L308.162 289.033C310.952 291.206 314.245 291.132 316.857 288.725V288.734Z" fill="#009340"/>
<path d="M670.222 126.6C678.216 126.6 685.363 127.932 691.661 130.597C697.96 133.261 703.168 137.097 707.286 142.104L692.024 155.912C689.117 152.763 685.969 150.421 682.577 148.887C679.266 147.272 675.551 146.464 671.433 146.464C667.799 146.464 664.489 147.03 661.501 148.16C658.513 149.291 655.97 150.946 653.87 153.126C651.771 155.225 650.115 157.769 648.903 160.757C647.773 163.664 647.208 166.975 647.208 170.689C647.208 174.243 647.773 177.513 648.903 180.501C650.115 183.489 651.771 186.073 653.87 188.253C655.97 190.352 658.473 192.008 661.38 193.219C664.368 194.349 667.638 194.915 671.19 194.915C674.743 194.915 678.216 194.349 681.607 193.219C682.453 192.917 683.301 192.564 684.151 192.162V168.873H705.349V203.999L704.431 204.641C699.799 207.801 694.492 210.253 688.512 211.994C682.132 213.851 675.874 214.779 669.737 214.779C663.035 214.779 656.817 213.73 651.084 211.631C645.351 209.451 640.385 206.382 636.186 202.425C632.067 198.468 628.837 193.825 626.495 188.495C624.153 183.085 622.982 177.15 622.982 170.689C622.982 164.229 624.153 158.334 626.495 153.005C628.837 147.595 632.108 142.911 636.307 138.954C640.506 134.997 645.472 131.97 651.205 129.87C657.019 127.69 663.358 126.6 670.222 126.6ZM844.693 126.6C850.265 126.6 855.716 127.245 861.046 128.537C866.456 129.748 871.261 131.566 875.46 133.988L868.071 151.794C864.034 149.614 860.036 147.999 856.079 146.949C852.122 145.819 848.287 145.253 844.572 145.253C841.262 145.253 838.597 145.616 836.578 146.343C834.559 146.989 833.106 147.877 832.218 149.008C831.33 150.138 830.885 151.43 830.885 152.884C830.885 154.741 831.733 156.235 833.429 157.365C835.205 158.415 837.507 159.304 840.333 160.03C843.24 160.676 846.389 161.363 849.78 162.09C853.253 162.817 856.685 163.745 860.076 164.876C863.548 165.926 866.698 167.379 869.524 169.236C872.351 171.013 874.612 173.395 876.308 176.383C878.084 179.29 878.973 182.964 878.973 187.405C878.973 192.331 877.559 196.894 874.732 201.093C871.987 205.211 867.828 208.521 862.257 211.024C856.766 213.528 849.821 214.779 841.423 214.779C834.478 214.779 827.776 213.932 821.316 212.236C814.937 210.46 809.728 208.199 805.69 205.453L813.563 187.769C817.359 190.191 821.72 192.21 826.646 193.825C831.652 195.359 836.618 196.126 841.544 196.126C844.855 196.126 847.519 195.844 849.538 195.278C851.557 194.632 853.011 193.824 853.899 192.855C854.868 191.806 855.353 190.594 855.353 189.222C855.352 187.284 854.464 185.75 852.688 184.619C850.911 183.489 848.609 182.56 845.783 181.833C842.957 181.106 839.808 180.38 836.336 179.653C832.944 178.927 829.512 177.998 826.04 176.867C822.648 175.737 819.539 174.283 816.713 172.507C813.887 170.65 811.585 168.267 809.809 165.36C808.032 162.373 807.145 158.618 807.145 154.096C807.145 149.008 808.517 144.405 811.263 140.287C814.089 136.169 818.288 132.858 823.859 130.354C829.431 127.851 836.376 126.6 844.693 126.6ZM503.003 213.084H479.02V128.295H503.003V213.084ZM582.082 173.479V128.295H605.581V213.084H585.837L548.409 167.898V213.084H524.91V128.295H544.654L582.082 173.479ZM791.897 146.828H749.14V161.12H786.81V179.047H749.14V194.552H793.472V213.084H725.398V128.295H791.897V146.828ZM918.879 213.084H894.896V128.295H918.879V213.084ZM964.77 194.067H1005.23V213.084H940.787V128.295H964.77V194.067Z" fill="white"/>
<path d="M488.556 269.8C486.667 269.8 484.859 269.535 483.131 269.006C481.404 268.453 480.033 267.75 479.02 266.898L480.574 263.408C481.542 264.168 482.74 264.802 484.168 265.308C485.596 265.815 487.059 266.069 488.556 266.069C489.823 266.069 490.848 265.93 491.632 265.654C492.415 265.377 492.991 265.009 493.359 264.548C493.728 264.064 493.912 263.523 493.912 262.924C493.912 262.187 493.647 261.6 493.117 261.162C492.588 260.701 491.897 260.344 491.044 260.091C490.215 259.814 489.282 259.561 488.245 259.331C487.232 259.1 486.207 258.835 485.17 258.536C484.157 258.213 483.224 257.81 482.371 257.326C481.542 256.82 480.862 256.152 480.333 255.322C479.803 254.493 479.538 253.433 479.538 252.143C479.538 250.83 479.883 249.632 480.574 248.55C481.289 247.444 482.36 246.569 483.788 245.924C485.239 245.256 487.071 244.922 489.282 244.922C490.733 244.922 492.173 245.106 493.601 245.474C495.029 245.843 496.273 246.373 497.333 247.064L495.916 250.554C494.834 249.909 493.716 249.437 492.565 249.137C491.413 248.815 490.307 248.653 489.247 248.653C488.003 248.653 486.99 248.803 486.207 249.103C485.447 249.402 484.882 249.794 484.514 250.277C484.168 250.761 483.995 251.314 483.995 251.936C483.995 252.673 484.249 253.272 484.755 253.733C485.285 254.171 485.965 254.516 486.794 254.769C487.646 255.023 488.591 255.276 489.628 255.53C490.664 255.76 491.689 256.025 492.703 256.324C493.739 256.624 494.672 257.015 495.502 257.499C496.354 257.983 497.034 258.639 497.54 259.469C498.07 260.298 498.335 261.346 498.335 262.613C498.335 263.903 497.978 265.101 497.264 266.207C496.573 267.289 495.502 268.165 494.05 268.833C492.599 269.478 490.768 269.8 488.556 269.8Z" fill="white"/>
<path d="M502.375 269.455V251.003H506.694V269.455H502.375ZM504.551 247.962C503.745 247.962 503.077 247.709 502.547 247.202C502.041 246.695 501.787 246.085 501.787 245.371C501.787 244.634 502.041 244.023 502.547 243.539C503.077 243.033 503.745 242.779 504.551 242.779C505.358 242.779 506.014 243.021 506.521 243.505C507.051 243.966 507.316 244.553 507.316 245.267C507.316 246.027 507.062 246.672 506.556 247.202C506.049 247.709 505.381 247.962 504.551 247.962Z" fill="white"/>
<path d="M518.064 269.697C516.521 269.697 515.035 269.501 513.607 269.109C512.202 268.695 511.084 268.199 510.255 267.623L511.914 264.341C512.743 264.871 513.733 265.308 514.885 265.654C516.037 265.999 517.189 266.172 518.341 266.172C519.7 266.172 520.679 265.988 521.278 265.619C521.9 265.251 522.211 264.755 522.211 264.133C522.211 263.627 522.003 263.247 521.589 262.993C521.174 262.717 520.633 262.509 519.965 262.371C519.297 262.233 518.548 262.106 517.719 261.991C516.912 261.876 516.095 261.726 515.265 261.542C514.459 261.335 513.722 261.047 513.054 260.678C512.386 260.287 511.844 259.768 511.43 259.123C511.015 258.478 510.808 257.626 510.808 256.566C510.808 255.391 511.142 254.378 511.81 253.526C512.478 252.65 513.411 251.982 514.609 251.521C515.83 251.038 517.269 250.796 518.928 250.796C520.172 250.796 521.427 250.934 522.694 251.21C523.961 251.487 525.009 251.878 525.839 252.385L524.18 255.668C523.305 255.138 522.418 254.781 521.52 254.597C520.644 254.389 519.769 254.286 518.893 254.286C517.58 254.286 516.601 254.481 515.956 254.873C515.334 255.265 515.023 255.76 515.023 256.359C515.023 256.912 515.231 257.326 515.645 257.603C516.06 257.879 516.601 258.098 517.269 258.259C517.937 258.421 518.675 258.559 519.481 258.674C520.31 258.766 521.128 258.916 521.934 259.123C522.74 259.331 523.478 259.618 524.146 259.987C524.837 260.333 525.39 260.828 525.804 261.473C526.219 262.118 526.426 262.959 526.426 263.995C526.426 265.147 526.081 266.149 525.39 267.001C524.722 267.854 523.766 268.522 522.522 269.006C521.278 269.466 519.792 269.697 518.064 269.697Z" fill="white"/>
<path d="M537.091 269.697C535.064 269.697 533.498 269.178 532.392 268.142C531.286 267.082 530.733 265.527 530.733 263.477V246.926H535.052V263.373C535.052 264.249 535.271 264.928 535.709 265.412C536.17 265.896 536.803 266.138 537.609 266.138C538.577 266.138 539.383 265.884 540.028 265.377L541.238 268.453C540.731 268.867 540.109 269.178 539.372 269.386C538.635 269.593 537.874 269.697 537.091 269.697ZM527.692 254.597V251.141H539.994V254.597H527.692Z" fill="white"/>
<path d="M552.856 269.697C550.806 269.697 549.009 269.294 547.466 268.487C545.945 267.658 544.759 266.529 543.907 265.101C543.078 263.673 542.663 262.049 542.663 260.229C542.663 258.386 543.066 256.762 543.872 255.357C544.702 253.929 545.83 252.811 547.259 252.005C548.71 251.199 550.357 250.796 552.2 250.796C553.997 250.796 555.598 251.187 557.003 251.971C558.408 252.754 559.514 253.86 560.32 255.288C561.126 256.716 561.529 258.398 561.529 260.333C561.529 260.517 561.518 260.724 561.495 260.955C561.495 261.185 561.483 261.404 561.46 261.611H546.084V258.743H559.18L557.486 259.642C557.509 258.582 557.291 257.649 556.83 256.843C556.369 256.036 555.736 255.403 554.929 254.942C554.146 254.481 553.236 254.251 552.2 254.251C551.14 254.251 550.207 254.481 549.401 254.942C548.618 255.403 547.996 256.048 547.535 256.877C547.097 257.683 546.878 258.639 546.878 259.745V260.436C546.878 261.542 547.132 262.521 547.639 263.373C548.145 264.226 548.86 264.882 549.781 265.343C550.702 265.804 551.762 266.034 552.96 266.034C553.997 266.034 554.929 265.873 555.759 265.55C556.588 265.228 557.325 264.721 557.97 264.03L560.285 266.69C559.456 267.658 558.408 268.407 557.141 268.936C555.897 269.443 554.469 269.697 552.856 269.697Z" fill="white"/>
<path d="M588.967 250.796C590.442 250.796 591.743 251.084 592.872 251.66C594.024 252.235 594.922 253.122 595.567 254.32C596.212 255.495 596.535 257.015 596.535 258.881V269.455H592.215V259.434C592.215 257.799 591.858 256.578 591.144 255.771C590.43 254.965 589.405 254.562 588.069 254.562C587.124 254.562 586.284 254.769 585.546 255.184C584.832 255.599 584.268 256.209 583.853 257.015C583.462 257.822 583.266 258.847 583.266 260.091V269.455H578.947V259.434C578.947 257.799 578.59 256.578 577.876 255.771C577.161 254.965 576.136 254.562 574.8 254.562C573.856 254.562 573.015 254.769 572.278 255.184C571.564 255.599 570.999 256.209 570.585 257.015C570.193 257.822 569.997 258.847 569.997 260.091V269.455H565.678V251.003H569.79V255.91L569.064 254.458C569.686 253.261 570.585 252.351 571.76 251.729C572.957 251.107 574.317 250.796 575.837 250.796C577.565 250.796 579.062 251.222 580.329 252.074C581.619 252.927 582.471 254.217 582.886 255.944L581.193 255.357C581.792 253.975 582.782 252.869 584.164 252.04C585.546 251.21 587.147 250.796 588.967 250.796Z" fill="white"/>
<path d="M613.422 269.455V265.723L613.18 264.928V258.398C613.18 257.131 612.8 256.152 612.04 255.461C611.28 254.746 610.128 254.389 608.585 254.389C607.548 254.389 606.523 254.551 605.509 254.873C604.519 255.196 603.678 255.645 602.987 256.221L601.294 253.076C602.284 252.316 603.459 251.752 604.818 251.383C606.2 250.992 607.629 250.796 609.103 250.796C611.775 250.796 613.837 251.441 615.288 252.731C616.762 253.998 617.499 255.967 617.499 258.639V269.455H613.422ZM607.617 269.697C606.235 269.697 605.026 269.466 603.989 269.006C602.952 268.522 602.146 267.865 601.57 267.036C601.017 266.184 600.741 265.228 600.741 264.168C600.741 263.131 600.983 262.198 601.467 261.369C601.973 260.54 602.791 259.883 603.92 259.4C605.049 258.916 606.546 258.674 608.412 258.674H613.768V261.542H608.723C607.249 261.542 606.258 261.784 605.751 262.268C605.244 262.728 604.991 263.304 604.991 263.995C604.991 264.778 605.302 265.4 605.924 265.861C606.546 266.322 607.41 266.552 608.516 266.552C609.575 266.552 610.52 266.31 611.349 265.827C612.201 265.343 612.812 264.629 613.18 263.684L613.906 266.276C613.491 267.359 612.743 268.199 611.66 268.798C610.6 269.397 609.253 269.697 607.617 269.697Z" fill="white"/>
<path d="M640.401 269.697C638.628 269.697 637.027 269.305 635.598 268.522C634.193 267.716 633.087 266.61 632.281 265.205C631.475 263.799 631.072 262.141 631.072 260.229C631.072 258.317 631.475 256.658 632.281 255.253C633.087 253.848 634.193 252.754 635.598 251.971C637.027 251.187 638.628 250.796 640.401 250.796C641.945 250.796 643.327 251.141 644.548 251.832C645.769 252.5 646.736 253.526 647.45 254.908C648.164 256.29 648.521 258.064 648.521 260.229C648.521 262.371 648.176 264.145 647.485 265.55C646.794 266.932 645.838 267.969 644.617 268.66C643.396 269.351 641.991 269.697 640.401 269.697ZM640.92 265.999C641.956 265.999 642.878 265.769 643.684 265.308C644.513 264.848 645.17 264.18 645.653 263.304C646.16 262.429 646.414 261.404 646.414 260.229C646.414 259.031 646.16 258.006 645.653 257.154C645.17 256.278 644.513 255.61 643.684 255.15C642.878 254.689 641.956 254.458 640.92 254.458C639.883 254.458 638.95 254.689 638.121 255.15C637.315 255.61 636.658 256.278 636.151 257.154C635.667 258.006 635.426 259.031 635.426 260.229C635.426 261.404 635.667 262.429 636.151 263.304C636.658 264.18 637.315 264.848 638.121 265.308C638.95 265.769 639.883 265.999 640.92 265.999ZM646.517 269.455V265.101L646.69 260.194L646.345 255.288V243.816H650.629V269.455H646.517Z" fill="white"/>
<path d="M664.987 269.697C662.937 269.697 661.14 269.294 659.597 268.487C658.076 267.658 656.89 266.529 656.038 265.101C655.208 263.673 654.794 262.049 654.794 260.229C654.794 258.386 655.197 256.762 656.003 255.357C656.832 253.929 657.961 252.811 659.389 252.005C660.841 251.199 662.488 250.796 664.331 250.796C666.127 250.796 667.728 251.187 669.134 251.971C670.539 252.754 671.644 253.86 672.451 255.288C673.257 256.716 673.66 258.398 673.66 260.333C673.66 260.517 673.649 260.724 673.626 260.955C673.626 261.185 673.614 261.404 673.591 261.611H658.215V258.743H671.31L669.617 259.642C669.64 258.582 669.422 257.649 668.961 256.843C668.5 256.036 667.867 255.403 667.06 254.942C666.277 254.481 665.367 254.251 664.331 254.251C663.271 254.251 662.338 254.481 661.532 254.942C660.749 255.403 660.127 256.048 659.666 256.877C659.228 257.683 659.009 258.639 659.009 259.745V260.436C659.009 261.542 659.263 262.521 659.769 263.373C660.276 264.226 660.99 264.882 661.912 265.343C662.833 265.804 663.893 266.034 665.091 266.034C666.127 266.034 667.06 265.873 667.89 265.55C668.719 265.228 669.456 264.721 670.101 264.03L672.416 266.69C671.587 267.658 670.539 268.407 669.272 268.936C668.028 269.443 666.6 269.697 664.987 269.697Z" fill="white"/>
<path d="M687.773 269.455V245.267H692.265V269.455H687.773Z" fill="white"/>
<path d="M708.862 250.796C710.337 250.796 711.65 251.084 712.802 251.66C713.976 252.235 714.898 253.122 715.566 254.32C716.234 255.495 716.568 257.015 716.568 258.881V269.455H712.249V259.434C712.249 257.799 711.857 256.578 711.074 255.771C710.314 254.965 709.243 254.562 707.86 254.562C706.847 254.562 705.948 254.769 705.165 255.184C704.382 255.599 703.772 256.221 703.334 257.05C702.919 257.856 702.712 258.881 702.712 260.125V269.455H698.393V251.003H702.505V255.979L701.779 254.458C702.424 253.284 703.357 252.385 704.578 251.763C705.822 251.118 707.25 250.796 708.862 250.796Z" fill="white"/>
<path d="M722.635 269.455V249.966C722.635 248.031 723.199 246.488 724.328 245.336C725.479 244.161 727.115 243.574 729.234 243.574C729.995 243.574 730.709 243.655 731.377 243.816C732.068 243.977 732.644 244.231 733.104 244.576L731.93 247.824C731.607 247.571 731.238 247.386 730.824 247.271C730.409 247.133 729.983 247.064 729.545 247.064C728.647 247.064 727.967 247.317 727.507 247.824C727.046 248.308 726.816 249.045 726.816 250.036V252.109L726.954 254.044V269.455H722.635ZM719.594 254.597V251.141H731.895V254.597H719.594Z" fill="white"/>
<path d="M742.825 269.697C740.936 269.697 739.255 269.294 737.78 268.487C736.306 267.658 735.143 266.529 734.291 265.101C733.438 263.673 733.012 262.049 733.012 260.229C733.012 258.386 733.438 256.762 734.291 255.357C735.143 253.929 736.306 252.811 737.78 252.005C739.255 251.199 740.936 250.796 742.825 250.796C744.737 250.796 746.43 251.199 747.905 252.005C749.402 252.811 750.565 253.917 751.395 255.322C752.247 256.727 752.673 258.363 752.673 260.229C752.673 262.049 752.247 263.673 751.395 265.101C750.565 266.529 749.402 267.658 747.905 268.487C746.43 269.294 744.737 269.697 742.825 269.697ZM742.825 265.999C743.885 265.999 744.829 265.769 745.659 265.308C746.488 264.848 747.133 264.18 747.594 263.304C748.077 262.429 748.319 261.404 748.319 260.229C748.319 259.031 748.077 258.006 747.594 257.154C747.133 256.278 746.488 255.61 745.659 255.15C744.829 254.689 743.896 254.458 742.86 254.458C741.8 254.458 740.856 254.689 740.026 255.15C739.22 255.61 738.575 256.278 738.091 257.154C737.608 258.006 737.366 259.031 737.366 260.229C737.366 261.404 737.608 262.429 738.091 263.304C738.575 264.18 739.22 264.848 740.026 265.308C740.856 265.769 741.789 265.999 742.825 265.999Z" fill="white"/>
<path d="M756.803 269.455V251.003H760.915V256.082L760.431 254.597C760.984 253.353 761.848 252.408 763.023 251.763C764.221 251.118 765.707 250.796 767.48 250.796V254.908C767.296 254.862 767.123 254.839 766.962 254.839C766.801 254.816 766.64 254.804 766.478 254.804C764.843 254.804 763.541 255.288 762.574 256.255C761.606 257.2 761.123 258.616 761.123 260.505V269.455H756.803Z" fill="white"/>
<path d="M794.434 250.796C795.908 250.796 797.21 251.084 798.338 251.66C799.49 252.235 800.388 253.122 801.033 254.32C801.678 255.495 802.001 257.015 802.001 258.881V269.455H797.682V259.434C797.682 257.799 797.325 256.578 796.611 255.771C795.896 254.965 794.871 254.562 793.535 254.562C792.591 254.562 791.75 254.769 791.013 255.184C790.299 255.599 789.734 256.209 789.32 257.015C788.928 257.822 788.732 258.847 788.732 260.091V269.455H784.413V259.434C784.413 257.799 784.056 256.578 783.342 255.771C782.628 254.965 781.603 254.562 780.267 254.562C779.322 254.562 778.481 254.769 777.744 255.184C777.03 255.599 776.466 256.209 776.051 257.015C775.66 257.822 775.464 258.847 775.464 260.091V269.455H771.145V251.003H775.256V255.91L774.531 254.458C775.153 253.261 776.051 252.351 777.226 251.729C778.424 251.107 779.783 250.796 781.303 250.796C783.031 250.796 784.528 251.222 785.795 252.074C787.085 252.927 787.938 254.217 788.352 255.944L786.659 255.357C787.258 253.975 788.249 252.869 789.631 252.04C791.013 251.21 792.614 250.796 794.434 250.796Z" fill="white"/>
<path d="M818.889 269.455V265.723L818.647 264.928V258.398C818.647 257.131 818.267 256.152 817.506 255.461C816.746 254.746 815.594 254.389 814.051 254.389C813.014 254.389 811.989 254.551 810.976 254.873C809.985 255.196 809.144 255.645 808.453 256.221L806.76 253.076C807.751 252.316 808.926 251.752 810.285 251.383C811.667 250.992 813.095 250.796 814.569 250.796C817.242 250.796 819.303 251.441 820.754 252.731C822.229 253.998 822.966 255.967 822.966 258.639V269.455H818.889ZM813.084 269.697C811.701 269.697 810.492 269.466 809.455 269.006C808.419 268.522 807.613 267.865 807.037 267.036C806.484 266.184 806.207 265.228 806.207 264.168C806.207 263.131 806.449 262.198 806.933 261.369C807.44 260.54 808.258 259.883 809.386 259.4C810.515 258.916 812.012 258.674 813.878 258.674H819.234V261.542H814.189C812.715 261.542 811.724 261.784 811.218 262.268C810.711 262.728 810.457 263.304 810.457 263.995C810.457 264.778 810.768 265.4 811.39 265.861C812.012 266.322 812.876 266.552 813.982 266.552C815.042 266.552 815.986 266.31 816.815 265.827C817.668 265.343 818.278 264.629 818.647 263.684L819.372 266.276C818.958 267.359 818.209 268.199 817.126 268.798C816.067 269.397 814.719 269.697 813.084 269.697Z" fill="white"/>
<path d="M837.008 269.697C835.073 269.697 833.346 269.294 831.825 268.487C830.328 267.658 829.153 266.529 828.301 265.101C827.449 263.673 827.022 262.049 827.022 260.229C827.022 258.386 827.449 256.762 828.301 255.357C829.153 253.929 830.328 252.811 831.825 252.005C833.346 251.199 835.073 250.796 837.008 250.796C838.805 250.796 840.383 251.164 841.742 251.901C843.124 252.616 844.173 253.675 844.887 255.08L841.57 257.015C841.017 256.14 840.337 255.495 839.531 255.08C838.748 254.666 837.895 254.458 836.974 254.458C835.914 254.458 834.958 254.689 834.106 255.15C833.254 255.61 832.586 256.278 832.102 257.154C831.618 258.006 831.376 259.031 831.376 260.229C831.376 261.427 831.618 262.463 832.102 263.339C832.586 264.191 833.254 264.848 834.106 265.308C834.958 265.769 835.914 265.999 836.974 265.999C837.895 265.999 838.748 265.792 839.531 265.377C840.337 264.963 841.017 264.318 841.57 263.442L844.887 265.377C844.173 266.76 843.124 267.831 841.742 268.591C840.383 269.328 838.805 269.697 837.008 269.697Z" fill="white"/>
<path d="M848.452 269.455V251.003H852.771V269.455H848.452ZM850.629 247.962C849.822 247.962 849.154 247.709 848.624 247.202C848.118 246.695 847.864 246.085 847.864 245.371C847.864 244.634 848.118 244.023 848.624 243.539C849.154 243.033 849.822 242.779 850.629 242.779C851.435 242.779 852.091 243.021 852.598 243.505C853.128 243.966 853.393 244.553 853.393 245.267C853.393 246.027 853.139 246.672 852.633 247.202C852.126 247.709 851.458 247.962 850.629 247.962Z" fill="white"/>
<path d="M866.733 269.697C864.844 269.697 863.162 269.294 861.688 268.487C860.214 267.658 859.05 266.529 858.198 265.101C857.346 263.673 856.92 262.049 856.92 260.229C856.92 258.386 857.346 256.762 858.198 255.357C859.05 253.929 860.214 252.811 861.688 252.005C863.162 251.199 864.844 250.796 866.733 250.796C868.645 250.796 870.338 251.199 871.812 252.005C873.309 252.811 874.473 253.917 875.302 255.322C876.154 256.727 876.581 258.363 876.581 260.229C876.581 262.049 876.154 263.673 875.302 265.101C874.473 266.529 873.309 267.658 871.812 268.487C870.338 269.294 868.645 269.697 866.733 269.697ZM866.733 265.999C867.792 265.999 868.737 265.769 869.566 265.308C870.395 264.848 871.04 264.18 871.501 263.304C871.985 262.429 872.227 261.404 872.227 260.229C872.227 259.031 871.985 258.006 871.501 257.154C871.04 256.278 870.395 255.61 869.566 255.15C868.737 254.689 867.804 254.458 866.767 254.458C865.708 254.458 864.763 254.689 863.934 255.15C863.128 255.61 862.483 256.278 861.999 257.154C861.515 258.006 861.273 259.031 861.273 260.229C861.273 261.404 861.515 262.429 861.999 263.304C862.483 264.18 863.128 264.848 863.934 265.308C864.763 265.769 865.696 265.999 866.733 265.999ZM863.796 248.481L868.46 243.747H873.54L867.528 248.481H863.796Z" fill="white"/>
<path d="M891.181 250.796C892.655 250.796 893.968 251.084 895.12 251.66C896.295 252.235 897.216 253.122 897.884 254.32C898.552 255.495 898.886 257.015 898.886 258.881V269.455H894.567V259.434C894.567 257.799 894.175 256.578 893.392 255.771C892.632 254.965 891.561 254.562 890.179 254.562C889.165 254.562 888.267 254.769 887.483 255.184C886.7 255.599 886.09 256.221 885.652 257.05C885.237 257.856 885.03 258.881 885.03 260.125V269.455H880.711V251.003H884.823V255.979L884.097 254.458C884.742 253.284 885.675 252.385 886.896 251.763C888.14 251.118 889.568 250.796 891.181 250.796Z" fill="white"/>
<path d="M914.329 269.455V245.267H918.821V265.654H931.468V269.455H914.329Z" fill="white"/>
<path d="M943.104 269.697C941.054 269.697 939.257 269.294 937.714 268.487C936.193 267.658 935.007 266.529 934.155 265.101C933.325 263.673 932.911 262.049 932.911 260.229C932.911 258.386 933.314 256.762 934.12 255.357C934.949 253.929 936.078 252.811 937.506 252.005C938.958 251.199 940.605 250.796 942.448 250.796C944.244 250.796 945.845 251.187 947.25 251.971C948.656 252.754 949.761 253.86 950.568 255.288C951.374 256.716 951.777 258.398 951.777 260.333C951.777 260.517 951.765 260.724 951.742 260.955C951.742 261.185 951.731 261.404 951.708 261.611H936.332V258.743H949.427L947.734 259.642C947.757 258.582 947.538 257.649 947.078 256.843C946.617 256.036 945.984 255.403 945.177 254.942C944.394 254.481 943.484 254.251 942.448 254.251C941.388 254.251 940.455 254.481 939.649 254.942C938.865 255.403 938.243 256.048 937.783 256.877C937.345 257.683 937.126 258.639 937.126 259.745V260.436C937.126 261.542 937.38 262.521 937.886 263.373C938.393 264.226 939.107 264.882 940.029 265.343C940.95 265.804 942.01 266.034 943.208 266.034C944.244 266.034 945.177 265.873 946.007 265.55C946.836 265.228 947.573 264.721 948.218 264.03L950.533 266.69C949.704 267.658 948.656 268.407 947.389 268.936C946.145 269.443 944.717 269.697 943.104 269.697Z" fill="white"/>
<path d="M964.288 276.4C962.583 276.4 960.913 276.17 959.278 275.709C957.665 275.271 956.341 274.626 955.304 273.774L957.239 270.526C958.045 271.194 959.059 271.724 960.28 272.115C961.524 272.53 962.779 272.737 964.046 272.737C966.073 272.737 967.559 272.265 968.503 271.321C969.448 270.399 969.92 269.006 969.92 267.14V263.857L970.266 259.676L970.127 255.495V251.003H974.239V266.656C974.239 269.996 973.387 272.449 971.682 274.016C969.978 275.605 967.513 276.4 964.288 276.4ZM963.735 268.625C961.984 268.625 960.395 268.257 958.967 267.52C957.561 266.76 956.444 265.711 955.615 264.375C954.809 263.039 954.406 261.473 954.406 259.676C954.406 257.902 954.809 256.347 955.615 255.011C956.444 253.675 957.561 252.639 958.967 251.901C960.395 251.164 961.984 250.796 963.735 250.796C965.301 250.796 966.707 251.107 967.951 251.729C969.195 252.351 970.185 253.318 970.922 254.631C971.682 255.944 972.062 257.626 972.062 259.676C972.062 261.726 971.682 263.419 970.922 264.755C970.185 266.069 969.195 267.048 967.951 267.693C966.707 268.314 965.301 268.625 963.735 268.625ZM964.392 264.963C965.474 264.963 966.442 264.744 967.294 264.306C968.146 263.846 968.803 263.224 969.264 262.44C969.747 261.634 969.989 260.713 969.989 259.676C969.989 258.639 969.747 257.73 969.264 256.946C968.803 256.14 968.146 255.53 967.294 255.115C966.442 254.677 965.474 254.458 964.392 254.458C963.309 254.458 962.33 254.677 961.455 255.115C960.602 255.53 959.934 256.14 959.45 256.946C958.99 257.73 958.759 258.639 958.759 259.676C958.759 260.713 958.99 261.634 959.45 262.44C959.934 263.224 960.602 263.846 961.455 264.306C962.33 264.744 963.309 264.963 964.392 264.963Z" fill="white"/>
<path d="M991.286 269.455V265.723L991.044 264.928V258.398C991.044 257.131 990.664 256.152 989.904 255.461C989.144 254.746 987.992 254.389 986.448 254.389C985.412 254.389 984.387 254.551 983.373 254.873C982.383 255.196 981.542 255.645 980.851 256.221L979.158 253.076C980.148 252.316 981.323 251.752 982.682 251.383C984.064 250.992 985.492 250.796 986.967 250.796C989.639 250.796 991.701 251.441 993.152 252.731C994.626 253.998 995.363 255.967 995.363 258.639V269.455H991.286ZM985.481 269.697C984.099 269.697 982.889 269.466 981.853 269.006C980.816 268.522 980.01 267.865 979.434 267.036C978.881 266.184 978.605 265.228 978.605 264.168C978.605 263.131 978.847 262.198 979.33 261.369C979.837 260.54 980.655 259.883 981.784 259.4C982.912 258.916 984.41 258.674 986.276 258.674H991.632V261.542H986.587C985.112 261.542 984.122 261.784 983.615 262.268C983.108 262.728 982.855 263.304 982.855 263.995C982.855 264.778 983.166 265.4 983.788 265.861C984.41 266.322 985.274 266.552 986.379 266.552C987.439 266.552 988.383 266.31 989.213 265.827C990.065 265.343 990.676 264.629 991.044 263.684L991.77 266.276C991.355 267.359 990.606 268.199 989.524 268.798C988.464 269.397 987.116 269.697 985.481 269.697Z" fill="white"/>
<path d="M1000.91 269.455V243.816H1005.23V269.455H1000.91Z" fill="white"/>
<path d="M859.821 317.457C858.666 317.457 857.622 317.202 856.688 316.693C855.77 316.166 855.04 315.394 854.497 314.374C853.97 313.355 853.707 312.081 853.707 310.553C853.707 309.024 853.978 307.75 854.522 306.731C855.082 305.712 855.821 304.948 856.739 304.438C857.673 303.929 858.7 303.674 859.821 303.674C861.146 303.674 862.318 303.963 863.337 304.54C864.356 305.118 865.163 305.924 865.758 306.96C866.352 307.98 866.649 309.177 866.649 310.553C866.649 311.929 866.352 313.135 865.758 314.171C865.163 315.207 864.356 316.013 863.337 316.591C862.318 317.168 861.146 317.457 859.821 317.457ZM852.662 317.304V298.4H855.108V307.394L854.853 310.527L855.006 313.661V317.304H852.662ZM859.618 315.317C860.484 315.317 861.257 315.122 861.936 314.731C862.632 314.34 863.176 313.788 863.567 313.075C863.974 312.345 864.178 311.504 864.178 310.553C864.178 309.585 863.974 308.752 863.567 308.056C863.176 307.343 862.632 306.791 861.936 306.4C861.257 306.009 860.484 305.814 859.618 305.814C858.768 305.814 857.995 306.009 857.299 306.4C856.62 306.791 856.076 307.343 855.668 308.056C855.278 308.752 855.082 309.585 855.082 310.553C855.082 311.504 855.278 312.345 855.668 313.075C856.076 313.788 856.62 314.34 857.299 314.731C857.995 315.122 858.768 315.317 859.618 315.317Z" fill="white"/>
<path d="M870.242 322.4C869.596 322.4 868.968 322.289 868.356 322.069C867.745 321.865 867.218 321.559 866.777 321.151L867.821 319.317C868.161 319.64 868.535 319.886 868.942 320.056C869.35 320.226 869.783 320.311 870.242 320.311C870.836 320.311 871.329 320.158 871.719 319.852C872.11 319.546 872.475 319.003 872.815 318.222L873.656 316.362L873.91 316.056L879.21 303.801H881.605L875.057 318.655C874.666 319.606 874.225 320.353 873.732 320.897C873.256 321.44 872.73 321.822 872.152 322.043C871.575 322.281 870.938 322.4 870.242 322.4ZM873.452 317.737L867.286 303.801H869.834L875.082 315.827L873.452 317.737Z" fill="white"/>
<path d="M891.086 317.304V299.47H893.634V317.304H891.086Z" fill="white"/>
<path d="M898.973 317.304V299.47H901.062L912.859 314.12H911.763V299.47H914.311V317.304H912.222L900.425 302.655H901.521V317.304H898.973Z" fill="white"/>
<path d="M927.7 317.508C926.324 317.508 925.059 317.287 923.904 316.846C922.749 316.387 921.747 315.75 920.897 314.935C920.048 314.103 919.386 313.135 918.91 312.03C918.435 310.926 918.197 309.712 918.197 308.387C918.197 307.062 918.435 305.848 918.91 304.744C919.386 303.64 920.048 302.68 920.897 301.865C921.764 301.033 922.774 300.396 923.929 299.954C925.084 299.495 926.358 299.266 927.751 299.266C929.161 299.266 930.452 299.495 931.623 299.954C932.795 300.413 933.789 301.101 934.604 302.018L933.025 303.597C932.294 302.884 931.496 302.366 930.63 302.043C929.781 301.704 928.855 301.534 927.853 301.534C926.834 301.534 925.883 301.704 924.999 302.043C924.133 302.383 923.377 302.859 922.732 303.47C922.103 304.081 921.611 304.812 921.254 305.661C920.914 306.493 920.745 307.402 920.745 308.387C920.745 309.355 920.914 310.264 921.254 311.113C921.611 311.946 922.103 312.676 922.732 313.304C923.377 313.916 924.133 314.391 924.999 314.731C925.866 315.071 926.808 315.241 927.827 315.241C928.778 315.241 929.687 315.096 930.553 314.808C931.437 314.502 932.252 314.001 932.999 313.304L934.452 315.241C933.568 315.988 932.532 316.557 931.343 316.948C930.171 317.321 928.957 317.508 927.7 317.508ZM932.006 314.909V308.285H934.452V315.241L932.006 314.909Z" fill="white"/>
<path d="M941.648 307.164H950.82V309.33H941.648V307.164ZM941.877 315.088H952.272V317.304H939.33V299.47H951.915V301.687H941.877V315.088Z" fill="white"/>
<path d="M964.347 317.508C962.988 317.508 961.732 317.287 960.577 316.846C959.439 316.387 958.445 315.75 957.596 314.935C956.763 314.103 956.109 313.135 955.634 312.03C955.158 310.926 954.92 309.712 954.92 308.387C954.92 307.062 955.158 305.848 955.634 304.744C956.109 303.64 956.772 302.68 957.621 301.865C958.47 301.033 959.464 300.396 960.602 299.954C961.757 299.495 963.014 299.266 964.373 299.266C965.748 299.266 967.014 299.504 968.169 299.98C969.341 300.438 970.334 301.126 971.15 302.043L969.494 303.648C968.814 302.935 968.05 302.408 967.201 302.069C966.351 301.712 965.443 301.534 964.475 301.534C963.472 301.534 962.538 301.704 961.672 302.043C960.823 302.383 960.084 302.859 959.455 303.47C958.827 304.081 958.334 304.812 957.978 305.661C957.638 306.493 957.468 307.402 957.468 308.387C957.468 309.372 957.638 310.289 957.978 311.139C958.334 311.971 958.827 312.693 959.455 313.304C960.084 313.916 960.823 314.391 961.672 314.731C962.538 315.071 963.472 315.241 964.475 315.241C965.443 315.241 966.351 315.071 967.201 314.731C968.05 314.374 968.814 313.831 969.494 313.101L971.15 314.706C970.334 315.623 969.341 316.319 968.169 316.795C967.014 317.27 965.74 317.508 964.347 317.508Z" fill="white"/>
<path d="M971.661 317.304L979.737 299.47H982.259L990.361 317.304H987.686L980.476 300.897H981.495L974.285 317.304H971.661ZM975.1 312.846L975.788 310.808H985.826L986.565 312.846H975.1Z" fill="white"/>
<path d="M993.022 317.304V299.47H995.57V315.088H1005.23V317.304H993.022Z" fill="white"/>
</svg>
