<svg width="1105" height="437" viewBox="0 0 1105 437" fill="none" xmlns="http://www.w3.org/2000/svg">
<path d="M212.061 100.097C272.479 97.6365 325.172 142.487 332.365 202.413C333.703 213.581 335.022 225.468 324.779 232.769C312.469 241.536 294.658 233.517 293.438 218.501C292.74 209.891 292.838 203.653 290.368 195.111C273.059 135.176 194.241 120.091 155.973 169.577C118.207 218.422 150.837 289.29 212.002 293.196C218.457 293.61 222.373 292.793 228.071 296.847C243.903 308.114 236.11 332.507 216.824 333.137C180.209 334.328 142.6 313.477 121.72 284.124C67.9541 208.573 120.008 103.836 212.081 100.087L212.061 100.097Z" fill="#009340"/>
<path d="M319.563 285.896L384.114 193.715C398.382 178.099 422.421 195.319 412.217 213.877L331.293 329.733C325.28 337.556 314.624 338.422 307.135 332.045L238.698 263.608C224.725 246.378 246.472 225.213 263.485 239.303L310.392 286.211C313.335 288.503 316.808 288.425 319.563 285.886V285.896Z" fill="#009340"/>
<path d="M481.886 226.179V143.141H510.995V226.179H481.886ZM496.441 133.949C491.13 133.949 486.84 132.468 483.572 129.506C480.303 126.544 478.669 122.867 478.669 118.475C478.669 114.083 480.303 110.406 483.572 107.444C486.84 104.482 491.13 103.001 496.441 103.001C501.752 103.001 506.042 104.431 509.31 107.291C512.579 110.048 514.213 113.623 514.213 118.015C514.213 122.611 512.579 126.441 509.31 129.506C506.144 132.468 501.854 133.949 496.441 133.949Z" fill="white"/>
<path d="M583.994 141.762C590.429 141.762 596.251 143.09 601.46 145.745C606.669 148.299 610.754 152.282 613.716 157.695C616.78 163.109 618.313 170.105 618.313 178.685V226.179H589.203V183.434C589.203 177.51 587.978 173.22 585.526 170.565C583.177 167.807 579.858 166.428 575.568 166.428C572.504 166.428 569.695 167.143 567.142 168.573C564.588 169.901 562.597 171.995 561.167 174.855C559.737 177.714 559.022 181.442 559.022 186.039V226.179H529.913V143.141H557.643V166.735L552.281 159.84C555.447 153.814 559.788 149.32 565.303 146.358C570.819 143.294 577.049 141.762 583.994 141.762Z" fill="white"/>
<path d="M678.235 257.279C670.268 257.279 662.659 256.36 655.408 254.522C648.258 252.683 642.13 249.977 637.023 246.402L647.594 226.025C651.067 228.783 655.356 230.928 660.463 232.46C665.672 234.094 670.728 234.911 675.631 234.911C683.495 234.911 689.164 233.175 692.637 229.702C696.109 226.332 697.846 221.378 697.846 214.841V205.036L699.378 181.749L699.224 158.308V143.141H726.955V211.011C726.955 226.74 722.716 238.384 714.239 245.942C705.761 253.5 693.76 257.279 678.235 257.279ZM673.179 221.889C665.826 221.889 659.033 220.255 652.803 216.986C646.675 213.616 641.721 208.968 637.942 203.044C634.265 197.018 632.427 189.92 632.427 181.749C632.427 173.578 634.265 166.53 637.942 160.606C641.721 154.58 646.675 149.933 652.803 146.665C659.033 143.396 665.826 141.762 673.179 141.762C680.227 141.762 686.253 143.192 691.258 146.052C696.262 148.81 700.042 153.15 702.595 159.074C705.251 164.998 706.578 172.556 706.578 181.749C706.578 190.941 705.251 198.499 702.595 204.423C700.042 210.347 696.262 214.739 691.258 217.599C686.253 220.459 680.227 221.889 673.179 221.889ZM680.074 198.755C683.546 198.755 686.61 198.04 689.266 196.61C692.024 195.18 694.169 193.188 695.701 190.635C697.335 188.081 698.152 185.119 698.152 181.749C698.152 178.378 697.335 175.416 695.701 172.863C694.169 170.309 692.024 168.369 689.266 167.041C686.61 165.611 683.546 164.896 680.074 164.896C676.601 164.896 673.486 165.611 670.728 167.041C667.97 168.369 665.774 170.309 664.14 172.863C662.608 175.416 661.842 178.378 661.842 181.749C661.842 185.119 662.608 188.081 664.14 190.635C665.774 193.188 667.97 195.18 670.728 196.61C673.486 198.04 676.601 198.755 680.074 198.755Z" fill="white"/>
<path d="M789.168 227.557C779.363 227.557 770.784 225.719 763.43 222.042C756.178 218.263 750.509 213.156 746.424 206.721C742.44 200.185 740.449 192.78 740.449 184.507C740.449 176.233 742.389 168.88 746.271 162.445C750.254 155.908 755.718 150.852 762.664 147.277C769.609 143.601 777.422 141.762 786.104 141.762C794.275 141.762 801.731 143.447 808.472 146.818C815.213 150.086 820.575 154.938 824.559 161.372C828.542 167.807 830.534 175.621 830.534 184.813C830.534 185.834 830.483 187.009 830.381 188.337C830.279 189.664 830.176 190.89 830.074 192.014H764.349V176.693H814.6L803.57 180.983C803.672 177.204 802.957 173.935 801.425 171.178C799.995 168.42 797.952 166.275 795.296 164.743C792.743 163.211 789.73 162.445 786.257 162.445C782.785 162.445 779.721 163.211 777.065 164.743C774.512 166.275 772.52 168.471 771.09 171.331C769.66 174.089 768.945 177.357 768.945 181.136V185.579C768.945 189.664 769.762 193.188 771.396 196.15C773.133 199.112 775.584 201.41 778.75 203.044C781.917 204.576 785.696 205.343 790.087 205.343C794.173 205.343 797.646 204.781 800.505 203.657C803.467 202.432 806.378 200.593 809.238 198.142L824.559 214.075C820.575 218.467 815.673 221.838 809.851 224.187C804.029 226.434 797.135 227.557 789.168 227.557Z" fill="white"/>
<path d="M874.136 227.557C867.089 227.557 860.195 226.74 853.454 225.106C846.815 223.472 841.453 221.429 837.367 218.978L846.1 199.061C849.981 201.41 854.526 203.3 859.735 204.73C864.944 206.057 870.051 206.721 875.056 206.721C879.958 206.721 883.329 206.211 885.167 205.189C887.108 204.168 888.078 202.789 888.078 201.053C888.078 199.419 887.159 198.244 885.32 197.529C883.584 196.712 881.235 196.099 878.273 195.691C875.413 195.282 872.247 194.822 868.774 194.312C865.302 193.801 861.778 193.137 858.203 192.32C854.73 191.401 851.513 190.073 848.551 188.337C845.691 186.498 843.393 184.047 841.657 180.983C839.921 177.919 839.052 174.037 839.052 169.339C839.052 164.028 840.584 159.33 843.649 155.244C846.815 151.057 851.411 147.788 857.437 145.439C863.463 142.988 870.817 141.762 879.499 141.762C885.321 141.762 891.193 142.375 897.117 143.601C903.143 144.724 908.199 146.46 912.285 148.81L903.552 168.573C899.467 166.224 895.381 164.641 891.296 163.824C887.21 162.904 883.329 162.445 879.652 162.445C874.749 162.445 871.277 163.007 869.234 164.13C867.293 165.254 866.323 166.632 866.323 168.267C866.323 169.901 867.191 171.178 868.927 172.097C870.664 172.914 872.962 173.578 875.822 174.089C878.784 174.497 882.001 174.957 885.474 175.467C888.946 175.876 892.419 176.54 895.892 177.459C899.467 178.378 902.684 179.757 905.544 181.596C908.506 183.332 910.855 185.732 912.591 188.796C914.328 191.758 915.196 195.588 915.196 200.287C915.196 205.394 913.613 209.99 910.446 214.075C907.382 218.161 902.786 221.429 896.658 223.88C890.632 226.332 883.125 227.557 874.136 227.557Z" fill="#009340"/>
<path d="M927.739 226.179V143.141H956.849V226.179H927.739ZM942.294 133.949C936.983 133.949 932.693 132.468 929.425 129.506C926.156 126.544 924.522 122.867 924.522 118.475C924.522 114.083 926.156 110.406 929.425 107.444C932.693 104.482 936.983 103.001 942.294 103.001C947.605 103.001 951.895 104.431 955.163 107.291C958.432 110.048 960.066 113.623 960.066 118.015C960.066 122.611 958.432 126.441 955.163 129.506C951.997 132.468 947.707 133.949 942.294 133.949Z" fill="#009340"/>
<path d="M975.766 226.179V112.5H1004.88V226.179H975.766Z" fill="#009340"/>
<path d="M738.3 324.218C736.183 324.218 734.268 323.751 732.555 322.816C730.873 321.851 729.534 320.434 728.538 318.566C727.573 316.698 727.09 314.362 727.09 311.56C727.09 308.757 727.588 306.422 728.585 304.553C729.612 302.685 730.967 301.284 732.648 300.349C734.361 299.415 736.245 298.948 738.3 298.948C740.729 298.948 742.878 299.477 744.746 300.536C746.614 301.595 748.093 303.074 749.183 304.974C750.273 306.842 750.818 309.037 750.818 311.56C750.818 314.082 750.273 316.293 749.183 318.192C748.093 320.092 746.614 321.571 744.746 322.63C742.878 323.688 740.729 324.218 738.3 324.218ZM725.175 323.937V289.279H729.659V305.768L729.192 311.513L729.472 317.258V323.937H725.175ZM737.926 320.294C739.515 320.294 740.931 319.936 742.177 319.22C743.454 318.504 744.45 317.492 745.166 316.184C745.914 314.845 746.287 313.303 746.287 311.56C746.287 309.785 745.914 308.259 745.166 306.982C744.45 305.674 743.454 304.662 742.177 303.946C740.931 303.23 739.515 302.872 737.926 302.872C736.369 302.872 734.953 303.23 733.676 303.946C732.43 304.662 731.434 305.674 730.686 306.982C729.97 308.259 729.612 309.785 729.612 311.56C729.612 313.303 729.97 314.845 730.686 316.184C731.434 317.492 732.43 318.504 733.676 319.22C734.953 319.936 736.369 320.294 737.926 320.294Z" fill="white"/>
<path d="M757.404 333.279C756.22 333.279 755.068 333.077 753.947 332.672C752.826 332.298 751.861 331.738 751.051 330.991L752.966 327.627C753.589 328.219 754.274 328.671 755.022 328.982C755.769 329.293 756.563 329.449 757.404 329.449C758.494 329.449 759.397 329.169 760.113 328.608C760.829 328.048 761.499 327.051 762.121 325.619L763.663 322.209L764.13 321.649L773.845 299.182H778.236L766.232 326.413C765.516 328.157 764.706 329.527 763.803 330.523C762.931 331.52 761.966 332.221 760.907 332.625C759.848 333.061 758.68 333.279 757.404 333.279ZM763.289 324.732L751.985 299.182H756.656L766.278 321.228L763.289 324.732Z" fill="white"/>
<path d="M795.619 323.937V291.241H800.29V323.937H795.619Z" fill="white"/>
<path d="M810.078 323.937V291.241H813.909L835.535 318.099H833.526V291.241H838.197V323.937H834.367L812.741 297.08H814.749V323.937H810.078Z" fill="white"/>
<path d="M862.744 324.311C860.222 324.311 857.902 323.906 855.784 323.097C853.667 322.256 851.83 321.088 850.273 319.594C848.716 318.068 847.501 316.293 846.629 314.269C845.758 312.245 845.322 310.018 845.322 307.589C845.322 305.16 845.758 302.934 846.629 300.91C847.501 298.886 848.716 297.126 850.273 295.632C851.861 294.106 853.714 292.938 855.831 292.129C857.949 291.288 860.284 290.867 862.838 290.867C865.422 290.867 867.789 291.288 869.937 292.129C872.086 292.969 873.908 294.23 875.402 295.912L872.506 298.808C871.167 297.5 869.704 296.55 868.116 295.959C866.559 295.336 864.862 295.025 863.024 295.025C861.156 295.025 859.412 295.336 857.793 295.959C856.205 296.581 854.819 297.453 853.636 298.574C852.484 299.695 851.581 301.034 850.927 302.591C850.304 304.117 849.993 305.783 849.993 307.589C849.993 309.364 850.304 311.03 850.927 312.587C851.581 314.113 852.484 315.452 853.636 316.604C854.819 317.725 856.205 318.597 857.793 319.22C859.381 319.843 861.109 320.154 862.978 320.154C864.721 320.154 866.387 319.889 867.976 319.36C869.595 318.799 871.09 317.881 872.46 316.604L875.122 320.154C873.503 321.524 871.603 322.567 869.424 323.284C867.275 323.969 865.048 324.311 862.744 324.311ZM870.638 319.547V307.402H875.122V320.154L870.638 319.547Z" fill="white"/>
<path d="M888.316 305.347H905.131V309.318H888.316V305.347ZM888.736 319.874H907.793V323.937H884.065V291.241H907.139V295.305H888.736V319.874Z" fill="white"/>
<path d="M929.931 324.311C927.44 324.311 925.135 323.906 923.018 323.097C920.932 322.256 919.11 321.088 917.553 319.594C916.027 318.068 914.828 316.293 913.956 314.269C913.084 312.245 912.648 310.018 912.648 307.589C912.648 305.16 913.084 302.934 913.956 300.91C914.828 298.886 916.043 297.126 917.6 295.632C919.157 294.106 920.978 292.938 923.065 292.129C925.182 291.288 927.486 290.867 929.978 290.867C932.5 290.867 934.82 291.303 936.937 292.175C939.086 293.016 940.908 294.277 942.402 295.959L939.366 298.901C938.121 297.594 936.719 296.628 935.162 296.005C933.605 295.351 931.939 295.025 930.164 295.025C928.327 295.025 926.615 295.336 925.026 295.959C923.469 296.581 922.115 297.453 920.963 298.574C919.811 299.695 918.907 301.034 918.254 302.591C917.631 304.117 917.319 305.783 917.319 307.589C917.319 309.395 917.631 311.077 918.254 312.634C918.907 314.16 919.811 315.483 920.963 316.604C922.115 317.725 923.469 318.597 925.026 319.22C926.615 319.843 928.327 320.154 930.164 320.154C931.939 320.154 933.605 319.843 935.162 319.22C936.719 318.566 938.121 317.569 939.366 316.23L942.402 319.173C940.908 320.855 939.086 322.131 936.937 323.003C934.82 323.875 932.484 324.311 929.931 324.311Z" fill="white"/>
<path d="M943.339 323.937L958.146 291.241H962.77L977.623 323.937H972.719L959.5 293.857H961.369L948.15 323.937H943.339ZM949.645 315.763L950.906 312.027H969.309L970.664 315.763H949.645Z" fill="white"/>
<path d="M982.501 323.937V291.241H987.172V319.874H1004.87V323.937H982.501Z" fill="white"/>
</svg>
